<?xml version="1.0" encoding="UTF-8"?>
<svg width="13px" height="7px" viewBox="0 0 13 7" version="1.1" xmlns="http://www.w3.org/2000/svg" xmlns:xlink="http://www.w3.org/1999/xlink">
    <!-- Generator: Sketch 46.2 (44496) - http://www.bohemiancoding.com/sketch -->
    <title>尖头上</title>
    <desc>Created with Sketch.</desc>
    <defs></defs>
    <g id="page1" stroke="none" stroke-width="1" fill="none" fill-rule="evenodd">
        <g id="admin框架" transform="translate(-99.000000, -300.000000)">
            <g id="尖头上" transform="translate(105.000000, 303.000000) scale(1, -1) rotate(-270.000000) translate(-105.000000, -303.000000) translate(97.000000, 295.000000)">
                <rect id="Rectangle-15" x="0" y="0" width="16" height="16"></rect>
                <path d="M4.56336248,13.20175 L4.56336248,13.20175 L4.56336248,13.20175 C4.15777924,12.7854175 4.16491137,12.1195901 4.57931977,11.7120411 L7.95321961,8.39398691 L7.95321961,8.39398691 C8.34698919,8.00673511 8.3522729,7.37359217 7.96502109,6.97982259 C7.95344667,6.96805337 7.94158262,6.95657254 7.92943984,6.94539065 L4.44290451,3.73475732 L4.44290451,3.73475732 C4.01901562,3.34441226 3.99182296,2.68434523 4.38216802,2.26045633 C4.39384733,2.24777337 4.40583923,2.23538184 4.41813266,2.22329318 L4.41813266,2.22329318 L4.41813266,2.22329318 C4.85262378,1.79603903 5.54889111,1.79428973 5.98552359,2.21935529 L10.1716792,6.2946146 L10.1716792,6.2946146 C10.9631409,7.06510943 10.9801378,8.33132532 10.2096429,9.12278693 C10.1994956,9.13321043 10.1892348,9.1435229 10.1788624,9.15372252 L6.04607687,13.2176716 L6.04607687,13.2176716 C5.63415158,13.6227357 4.97185074,13.6171737 4.56678655,13.2052484 C4.56564247,13.204085 4.5645011,13.2029188 4.56336248,13.20175 Z" id="Chevron" fill="#D2D9E3"></path>
            </g>
        </g>
    </g>
</svg>