<?xml version="1.0" encoding="UTF-8"?>
<svg width="160px" height="52px" viewBox="0 0 160 52" version="1.1" xmlns="http://www.w3.org/2000/svg" xmlns:xlink="http://www.w3.org/1999/xlink">
    <!-- Generator: Sketch 46.2 (44496) - http://www.bohemiancoding.com/sketch -->
    <title>logo-大</title>
    <desc>Created with Sketch.</desc>
    <defs></defs>
    <g id="Symbols" stroke="none" stroke-width="1" fill="none" fill-rule="evenodd">
        <g id="外框" transform="translate(-10.000000, -10.000000)" fill-rule="nonzero">
            <g id="logo" transform="translate(10.000000, 10.000000)">
                <polygon id="Shape" opacity="0.2" points="160 52 0 52 0 0 160 0"></polygon>
                <g transform="translate(18.378378, 9.729730)">
                    <path d="M56.1351351,26.6378378 L56.1351351,3.43783784 L59.3027027,3.43783784 L59.3027027,23.7837838 L69.7837838,23.7837838 L69.7837838,26.6324324 L56.1351351,26.6378378 Z M72.4324324,26.6378378 L72.4324324,12.2108108 L70.1081081,12.2108108 L70.1081081,9.68108108 L75.4432432,9.68108108 L75.4432432,26.6378378 L72.4324324,26.6378378 Z M74.0540541,3.26486486 C74.5512092,3.25438197 75.0305523,3.45003219 75.3783784,3.80540541 C75.7312432,4.14824028 75.9268432,4.62159225 75.9189189,5.11351351 C75.9203601,5.60998042 75.7237771,6.08652877 75.3727205,6.43758537 C75.0216639,6.78864197 74.5451156,6.98522492 74.0486486,6.98378378 C73.5567274,6.99170804 73.0833754,6.79610805 72.7405405,6.44324324 C72.1799586,5.9131579 72.0062317,5.09132129 72.3043351,4.37971963 C72.6024385,3.66811797 73.3100606,3.21549514 74.0810811,3.24324324 L74.0540541,3.26486486 Z M78.5243243,31.2810811 L80.1459459,28.8756757 C81.8972973,30.0468468 83.5189189,30.6324324 85.0108108,30.6324324 C86.1353601,30.69345 87.2556085,30.4507295 88.2540541,29.9297297 C88.9421539,29.6107203 89.3961581,28.9359618 89.4324324,28.1783784 C89.4324324,26.8054054 88.4396396,26.1189189 86.4540541,26.1189189 C85.8357165,26.1551702 85.2211997,26.2401181 84.6162162,26.372973 C83.933127,26.5184453 83.2385503,26.6034586 82.5405405,26.627027 C80.1333333,26.627027 78.9297297,25.7261261 78.9297297,23.9243243 C78.9579048,23.3127034 79.2722929,22.7500088 79.7783784,22.4054054 C80.3956721,21.9256779 81.1121486,21.5895987 81.8756757,21.4216216 C79.4900901,20.3009009 78.2972973,18.3585586 78.2972973,15.5945946 C78.2567825,13.9206681 78.9310565,12.3087012 80.1513514,11.1621622 C81.378788,9.98240117 83.0278553,9.34380133 84.7297297,9.38918919 C86.1101074,9.30817041 87.4805318,9.66781217 88.6432432,10.4162162 L90.1459459,8.61081081 L92.1081081,10.4648649 L90.2702703,11.8 C91.0849391,12.9434619 91.4922732,14.3272557 91.427027,15.7297297 C91.4709469,17.3274632 90.8890602,18.879161 89.8054054,20.0540541 C88.7117743,21.228204 87.2118008,21.9414646 85.6108108,22.0486486 L83.1243243,22.3027027 C82.7151402,22.3655535 82.3155641,22.4799776 81.9351351,22.6432432 C81.4378378,22.8378378 81.1891892,23.0936937 81.1891892,23.4108108 C81.1891892,23.8432432 81.7063063,24.0594595 82.7405405,24.0594595 C83.4546099,24.0215159 84.1647629,23.9293586 84.8648649,23.7837838 C85.5782591,23.6472285 86.301124,23.5659062 87.027027,23.5405405 C88.4293446,23.4557134 89.8151589,23.8799031 90.9297297,24.7351351 C91.88038,25.5684176 92.3963705,26.7916537 92.3297297,28.0540541 C92.3417685,29.5956381 91.5461206,31.0310853 90.2324324,31.8378378 C88.6504113,32.8507139 86.7959728,33.3544118 84.9189189,33.2810811 C83.7388486,33.2680628 82.5680259,33.0711019 81.4486486,32.6972973 C80.4021157,32.3905736 79.4138652,31.9119753 78.5243243,31.2810811 L78.5243243,31.2810811 Z M84.9027027,11.7837838 C83.9278498,11.7534088 82.9903165,12.1597393 82.3459459,12.8918919 C81.6834653,13.6335895 81.3295822,14.6004832 81.3567568,15.5945946 C81.3170074,16.6555456 81.6561642,17.6960097 82.3135135,18.5297297 C82.9461044,19.3023273 83.9050001,19.7327293 84.9027027,19.6918919 C85.8697491,19.7380014 86.800331,19.3179331 87.4054054,18.5621622 C88.0391833,17.7065004 88.3580537,16.6582378 88.3081081,15.5945946 C88.3359293,14.603277 87.988432,13.638007 87.3351351,12.8918919 C86.7331487,12.1743015 85.839209,11.7670623 84.9027027,11.7837838 L84.9027027,11.7837838 Z M104.864865,26.6378378 L104.864865,15.9837838 C104.937813,14.9032044 104.615024,13.8330063 103.956757,12.972973 C103.291494,12.2312343 102.324371,11.8332415 101.32973,11.8918919 C100.553729,11.9054809 99.7956879,12.1276655 99.1351351,12.5351351 C98.4663966,12.9088651 97.8900696,13.4279288 97.4486486,14.0540541 L97.4486486,26.6378378 L94.4378378,26.6378378 L94.4378378,2.7027027 L97.4486486,2.7027027 L97.4486486,11.5459459 C97.9346217,10.852071 98.6075384,10.3103637 99.3891892,9.98378378 C100.255849,9.57312739 101.203134,9.36077316 102.162162,9.36216216 C103.765863,9.27986526 105.319741,9.93245418 106.383784,11.1351351 C107.403604,12.3171171 107.913514,13.9387387 107.913514,16 L107.913514,26.6378378 L104.864865,26.6378378 Z M111.794595,12.0540541 L109.832432,12.0540541 L109.832432,9.68108108 L111.794595,9.68108108 L111.794595,6.12972973 L114.805405,4.97297297 L114.805405,9.67567568 L119.459459,9.67567568 L119.459459,12.0540541 L114.805405,12.0540541 L114.805405,20.4810811 C114.805405,21.9225225 115.045045,22.9369369 115.524324,23.5243243 C116.113141,24.1681726 116.968878,24.5000703 117.837838,24.4216216 C118.667795,24.4075639 119.484107,24.2081031 120.227027,23.8378378 L120.67027,26.4810811 C119.327777,26.8094813 117.949587,26.9692716 116.567568,26.9567568 C115.271978,26.9758356 114.032454,26.429103 113.172973,25.4594595 C112.235411,24.4272268 111.738771,23.0692266 111.789189,21.6756757 L111.794595,12.0540541 Z" id="Combined-Shape" fill="#606060"></path>
                    <polygon id="Shape" fill="#B5C1D4" points="43.0864865 3.51351351 43.8972973 3.51351351 43.8972973 26.6648649 43.0864865 26.6648649"></polygon>
                    <path d="M6.17837838,33.5675676 C3.167511,33.4325779 0.733851242,31.0662094 0.514512962,28.0603093 C0.295174682,25.0544093 2.35954037,22.3598232 5.31891892,21.7891892 C6.05778635,21.6817176 6.74387972,22.193565 6.85135135,22.9324324 C6.95882298,23.6712999 6.44697554,24.3573932 5.70810811,24.4648649 C3.98710934,24.7023666 2.75891127,26.2538121 2.92267974,27.9833853 C3.08644821,29.7129586 4.58401208,31.0063092 6.31900237,30.9165731 C8.05399265,30.8268369 9.41013466,29.3858885 9.39459459,27.6486486 C9.39459459,25.8810811 8.45405405,24.2594595 7.36756757,22.3837838 C6,20 4.44864865,17.3351351 4.44864865,13.6756757 C4.45428727,7.93262642 8.15796505,2.84660865 13.6220513,1.07844348 C19.0861375,-0.68972168 25.0673087,1.26230228 28.4364316,5.9132868 C31.8055546,10.5642713 31.7960035,16.8559098 28.412775,21.4966438 C25.0295466,26.1373778 19.0424765,28.0712332 13.5837838,26.2864865 C13.1194135,26.1403773 12.7695204,25.7557935 12.6678302,25.2797193 C12.5661399,24.803645 12.7283715,24.3096705 13.0925217,23.986588 C13.4566718,23.6635056 13.9664512,23.5612563 14.427027,23.7189189 C18.7796763,25.1458053 23.5560161,23.6060738 26.2558138,19.9057153 C28.9556115,16.2053569 28.9640974,11.1869783 26.2768296,7.47751046 C23.5895617,3.76804262 18.8184564,2.2121666 14.4610064,3.62432449 C10.1035565,5.03648238 7.15199451,9.0951124 7.15135135,13.6756757 C7.15135135,16.6054054 8.45405405,18.8540541 9.71351351,21.027027 C10.8864865,23.0540541 12.1027027,25.1513514 12.1027027,27.6486486 C12.0878837,30.9135269 9.44326882,33.5557288 6.17837838,33.5675676 Z M20.1025112,9.65906909 C19.3282128,10.2681631 18.2067517,10.1342384 17.5976577,9.35993999 C16.9885637,8.58564159 17.1224884,7.46418048 17.8967868,6.85508651 C18.6710852,6.24599255 19.7925463,6.3799172 20.4016403,7.15421561 C21.0107342,7.92851402 20.8768096,9.04997512 20.1025112,9.65906909 Z" id="Combined-Shape" fill="#00BCFF"></path>
                </g>
            </g>
        </g>
    </g>
</svg>