<?xml version="1.0" encoding="UTF-8"?>
<svg width="22px" height="22px" viewBox="0 0 22 22" version="1.1" xmlns="http://www.w3.org/2000/svg" xmlns:xlink="http://www.w3.org/1999/xlink">
    <!-- Generator: Sketch 46.2 (44496) - http://www.bohemiancoding.com/sketch -->
    <title>系统-激活</title>
    <desc>Created with Sketch.</desc>
    <defs></defs>
    <g id="Symbols" stroke="none" stroke-width="1" fill="none" fill-rule="evenodd">
        <g id="系统-激活">
            <rect id="Rectangle-22" x="0" y="0" width="22" height="22"></rect>
            <g id="browser.1" transform="translate(0.647059, 0.647059)" fill-rule="nonzero" fill="#0AA9F1">
                <path d="M0.212147147,18.6986649 C0.36941884,19.9956381 1.45959682,21 2.78089898,21 L18.3103107,21 C19.7396637,21 20.898546,19.8246562 20.898546,18.375 L20.898546,7.09943182 L20.8726582,7.09943182 L20.8726582,6.5625 L0.166775813,6.5625 L0.166775813,18.375 C0.166775813,18.4866832 0.18252082,18.5951228 0.212147147,18.6986649 Z M0.212147147,2.30133511 C0.36941884,1.00436191 1.45959682,0 2.78089898,0 L18.3103107,0 C19.7396637,0 20.898546,1.17534375 20.898546,2.625 L20.898546,5.07102273 L20.8726582,5.07102273 L20.8726582,5.25 L0.166775813,5.25 L0.166775813,2.625 C0.166775813,2.51331677 0.18252082,2.40487718 0.212147147,2.30133511 Z M6.0161931,2.625 C5.65901663,2.625 5.36913428,2.919 5.36913428,3.28125 C5.36913428,3.64415625 5.65901663,3.9375 6.0161931,3.9375 C6.37336957,3.9375 6.66325192,3.64415625 6.66325192,3.28125 C6.66325192,2.919 6.37336957,2.625 6.0161931,2.625 Z M8.60442839,2.625 C8.24725192,2.625 7.95736957,2.919 7.95736957,3.28125 C7.95736957,3.64415625 8.24725192,3.9375 8.60442839,3.9375 C8.96160486,3.9375 9.25148722,3.64415625 9.25148722,3.28125 C9.25148722,2.919 8.96160486,2.625 8.60442839,2.625 Z M3.42795781,2.625 C3.07078133,2.625 2.78089898,2.919 2.78089898,3.28125 C2.78089898,3.64415625 3.07078133,3.9375 3.42795781,3.9375 C3.78513428,3.9375 4.07501663,3.64415625 4.07501663,3.28125 C4.07501663,2.919 3.78513428,2.625 3.42795781,2.625 Z" id="Combined-Shape"></path>
            </g>
        </g>
    </g>
</svg>