<?xml version="1.0" encoding="UTF-8"?>
<svg width="20px" height="22px" viewBox="0 0 20 22" version="1.1" xmlns="http://www.w3.org/2000/svg" xmlns:xlink="http://www.w3.org/1999/xlink">
    <!-- Generator: Sketch 46.2 (44496) - http://www.bohemiancoding.com/sketch -->
    <title>运维-激活</title>
    <desc>Created with Sketch.</desc>
    <defs></defs>
    <g id="Symbols" stroke="none" stroke-width="1" fill="none" fill-rule="evenodd">
        <g id="运维-激活" transform="translate(-1.000000, 0.000000)">
            <rect id="Rectangle-22-Copy-2" x="0" y="0" width="22" height="22"></rect>
            <g id="clipboard.1" transform="translate(1.941176, 0.647059)" fill-rule="nonzero" fill="#0AA9F1">
                <path d="M15.5294118,2.58823529 C16.9587647,2.58823529 18.1176471,3.74711765 18.1176471,5.17647059 L18.1176471,18.1176471 C18.1176471,19.547 16.9587647,20.7058824 15.5294118,20.7058824 L2.58823529,20.7058824 C1.15888235,20.7058824 0,19.547 0,18.1176471 L0,5.17647059 C0,3.74711765 1.15888235,2.58823529 2.58823529,2.58823529 L4.52941176,2.58823529 L4.52941176,1.29411765 L6.27194118,1.29411765 C6.83294118,0.524117647 7.86435294,0 9.05882353,0 C10.2532941,0 11.2847059,0.524117647 11.8457059,1.29411765 L13.5882353,1.29411765 L13.5882353,2.58823529 L15.5294118,2.58823529 Z M5.82352941,2.58823529 L5.82352941,5.17647059 L12.2941176,5.17647059 L12.2941176,2.58823529 L10.8557059,2.58823529 C10.8557059,1.87388235 10.0514118,1.29411765 9.05882353,1.29411765 C8.06623529,1.29411765 7.26194118,1.87388235 7.26194118,2.58823529 L5.82352941,2.58823529 Z M13.5882353,9.05882353 L4.52941176,9.05882353 C4.17158824,9.05882353 3.88235294,9.34870588 3.88235294,9.70588235 C3.88235294,10.0637059 4.17158824,10.3529412 4.52941176,10.3529412 L13.5882353,10.3529412 C13.9460588,10.3529412 14.2352941,10.0637059 14.2352941,9.70588235 C14.2352941,9.34870588 13.9460588,9.05882353 13.5882353,9.05882353 Z M13.5882353,15.5294118 L4.52941176,15.5294118 C4.17158824,15.5294118 3.88235294,15.8192941 3.88235294,16.1764706 C3.88235294,16.5342941 4.17158824,16.8235294 4.52941176,16.8235294 L13.5882353,16.8235294 C13.9460588,16.8235294 14.2352941,16.5342941 14.2352941,16.1764706 C14.2352941,15.8192941 13.9460588,15.5294118 13.5882353,15.5294118 Z M13.5882353,12.2941176 L4.52941176,12.2941176 C4.17158824,12.2941176 3.88235294,12.584 3.88235294,12.9411765 C3.88235294,13.299 4.17158824,13.5882353 4.52941176,13.5882353 L13.5882353,13.5882353 C13.9460588,13.5882353 14.2352941,13.299 14.2352941,12.9411765 C14.2352941,12.584 13.9460588,12.2941176 13.5882353,12.2941176 Z" id="clipboard"></path>
            </g>
        </g>
    </g>
</svg>