<?xml version="1.0" encoding="UTF-8"?>
<svg width="20px" height="20px" viewBox="0 0 20 20" version="1.1" xmlns="http://www.w3.org/2000/svg" xmlns:xlink="http://www.w3.org/1999/xlink">
    <!-- Generator: Sketch 46.2 (44496) - http://www.bohemiancoding.com/sketch -->
    <title>面包屑-icon-20</title>
    <desc>Created with Sketch.</desc>
    <defs></defs>
    <g id="Symbols" stroke="none" stroke-width="1" fill="none" fill-rule="evenodd">
        <g id="顶部菜单" transform="translate(-20.000000, -7.000000)">
            <g id="Group" transform="translate(20.000000, 7.000000)">
                <rect id="Rectangle" x="0" y="0" width="20" height="20"></rect>
                <path d="M7.64512564,16.5546642 C7.97441027,16.1594908 8.17332792,15.6518385 8.17584319,15.0976826 C8.17584319,14.1343518 7.70668856,13.3253207 7.25421498,12.5433963 C6.76837929,11.7051734 6.26586255,10.8377586 6.26586255,9.70761718 C6.26611064,7.94066781 7.40467379,6.37505385 9.08555736,5.83031484 C10.7664409,5.28557583 12.6068918,5.88575401 13.6435036,7.31667888 C14.6801155,8.74760375 14.6768421,10.6834401 13.6353968,12.110851 C12.5939516,13.538262 10.7514815,14.1322124 9.07244982,13.5817919 C8.89478299,13.5209736 8.69813592,13.5604162 8.55766523,13.6850451 C8.41719455,13.8096739 8.3546138,14.0002243 8.39384075,14.1838696 C8.4330677,14.367515 8.56803875,14.5158679 8.74716928,14.5722295 C10.8528565,15.2606944 13.162365,14.5147109 14.4674433,12.7245507 C15.7725215,10.9343905 15.7762058,8.50739493 14.4765688,6.7132806 C13.1769317,4.91916627 10.8696987,4.16617426 8.76193094,4.84824285 C6.65416314,5.53031144 5.22547179,7.49223958 5.22329669,9.70761718 C5.22329669,11.1192514 5.82172949,12.1472213 6.34926781,13.0667644 C6.76837929,13.7903051 7.1311922,14.4158446 7.1311922,15.0976826 C7.13358431,15.3650988 7.05171984,15.614315 6.9099348,15.8194734 L5.16945945,14.078998 C5.32567015,13.9710306 5.50874096,13.8971945 5.70913238,13.8695401 C5.99415003,13.828083 6.19159485,13.5634229 6.15013774,13.2784052 C6.10868062,12.9933876 5.84402054,12.7959428 5.5590029,12.8373999 C5.13969857,12.9182511 4.76697234,13.1096366 4.46736914,13.3769077 L2.50421906,11.4137576 C1.72317047,10.632709 1.72317047,9.36637909 2.50421906,8.58533051 L8.58533737,2.50421219 L8.58533737,2.50421219 C9.36638596,1.72316361 10.6327159,1.72316361 11.4137645,2.50421219 L11.4137645,2.50421219 L17.4948828,8.58533051 C18.2759314,9.36637909 18.2759314,10.632709 17.4948828,11.4137576 L11.4137645,17.494876 C10.6327159,18.2759245 9.36638596,18.2759245 8.58533737,17.494876 L7.64512564,16.5546642 Z M11.2617642,8.15821374 C11.5604494,7.92325613 11.6121107,7.49065322 11.3771531,7.1919681 C11.1421955,6.89328298 10.7095926,6.84162163 10.4109075,7.07657924 C10.1122223,7.31153685 10.060561,7.74413976 10.2955186,8.04282488 C10.5304762,8.34151 10.9630791,8.39317135 11.2617642,8.15821374 Z" id="Combined-Shape" fill="#00BCFF"></path>
            </g>
        </g>
    </g>
</svg>