<?xml version="1.0" encoding="UTF-8"?>
<svg width="40px" height="40px" viewBox="0 0 40 40" version="1.1" xmlns="http://www.w3.org/2000/svg" xmlns:xlink="http://www.w3.org/1999/xlink">
    <!-- Generator: Sketch 41.2 (35397) - http://www.bohemiancoding.com/sketch -->
    <title>logo</title>
    <desc>Created with Sketch.</desc>
    <defs></defs>
    <g id="Page-1" stroke="none" stroke-width="1" fill="none" fill-rule="evenodd">
        <g id="仪表盘" transform="translate(-10.000000, -10.000000)" fill="#FFFFFF">
            <path d="M30,10 C18.954305,10 10,18.954305 10,30 C10,41.045695 18.954305,50 30,50 C41.045695,50 50,41.045695 50,30 C49.9863931,18.9599461 41.0400539,10.0136069 30,10 L30,10 Z M37.5745281,31.03722 C36.7489857,32.3037573 35.5777033,33.450344 33.6584936,34.8685835 L33.0269889,35.3378021 C31.9669635,36.102247 30.9516,36.9267881 29.9858882,37.8073734 L29.9858882,37.8073734 C29.8694655,37.9167402 29.7636267,38.0261069 29.6648439,38.1284177 L29.6330923,38.1601693 C29.5448933,38.2518963 29.4637502,38.3436232 29.3896631,38.4318222 L29.3473276,38.4847416 C29.2802963,38.5658846 29.220321,38.6434997 29.1638737,38.7211148 L29.1180102,38.7846181 C29.0686188,38.8575293 29.0227553,38.9292644 28.9804198,38.9998236 L28.9380843,39.0703828 C28.9028047,39.137414 28.8675251,39.2044452 28.8393015,39.2679485 L28.8040219,39.3455636 C28.7793262,39.4090669 28.7581584,39.4725701 28.7369907,39.5360734 C28.7158229,39.5995766 28.7193509,39.5889928 28.7122949,39.6136885 C28.705239,39.6383842 28.6840713,39.740695 28.6734874,39.8077262 C28.6629035,39.8747575 28.6734874,39.8535897 28.6734874,39.8782854 C28.6678818,39.9652181 28.6678818,40.0524217 28.6734874,40.1393544 C28.6743188,40.2199111 28.6825858,40.3002189 28.6981831,40.3792556 L28.6981831,40.428647 C28.713754,40.4984669 28.7349921,40.5669009 28.7616864,40.6332687 L28.78991,40.7002999 C28.8118878,40.7475757 28.8366262,40.7935185 28.8639972,40.8378903 C28.8868414,40.8755664 28.9115684,40.9120682 28.9380843,40.947257 L29.0086435,41.031928 L29.0897866,41.116599 C29.1278624,41.1517771 29.1679107,41.1847581 29.2097372,41.2153819 C29.7407622,41.6119702 30.4835808,41.5530882 30.945493,41.0777915 C31.2445773,40.7749059 31.7083142,40.7072175 32.0814959,40.9119774 C32.3432504,41.0552753 32.5227241,41.3129579 32.5663806,41.6081592 C32.6100372,41.9033606 32.5128306,42.2019606 32.3037573,42.414888 C31.6973604,43.0367781 30.8650696,43.3867474 29.996472,43.3850767 L29.996472,43.3850767 C28.208612,43.3831323 26.75975,41.9342704 26.7578056,40.1464103 C26.7578056,38.8163697 27.3646146,37.7403422 28.5464809,36.5690598 C27.929088,36.0786735 27.1952725,35.5106721 26.3238666,34.8791674 C24.4046569,33.4679838 23.2333745,32.3143412 22.4078321,31.0478038 C21.4133916,29.4984492 20.9115577,27.6842212 20.9684248,25.8440642 C20.9660998,22.3267969 23.0082858,19.1289056 26.2002239,17.6515072 C29.392162,16.1741089 33.1517289,16.686641 35.8317164,18.964544 C35.949315,19.0656788 36.0669136,19.1691656 36.1845123,19.2750044 L36.20568,19.2961722 C36.3115188,19.397307 36.4150056,19.5007938 36.5161404,19.6066326 L36.5443641,19.6383842 C36.6431469,19.741871 36.7395778,19.8488858 36.8336567,19.9594285 L36.8618804,19.9911801 C36.9583113,20.1040748 37.0512142,20.2216734 37.1405892,20.343976 L37.158229,20.3686717 C37.5474494,20.8740803 37.8821155,21.4192432 38.1566414,21.9950609 L38.1778091,22.0373964 C38.2366085,22.1620509 38.2918798,22.2890574 38.3436232,22.4184159 L38.3859587,22.5313106 C38.4282942,22.6371494 38.4706297,22.7465161 38.5094373,22.8523549 L38.5588287,22.9970012 C38.5905803,23.0957841 38.6258599,23.1980949 38.6540836,23.2968778 L38.6999471,23.4591639 C38.7258188,23.5555948 38.7505145,23.6520256 38.7740342,23.7484565 L38.8163697,23.9248545 C38.8375375,24.0201094 38.8551773,24.1188922 38.8728171,24.2141471 C38.8904569,24.309402 38.8939848,24.3340977 38.9045687,24.397601 C38.9151526,24.4611043 38.9327924,24.5951667 38.9469042,24.6974775 C38.9610161,24.7997883 38.9469042,24.8174281 38.9715999,24.8774034 C38.9962956,24.9373787 38.9927677,25.0961369 38.9998236,25.2055036 L38.9998236,25.3607338 L38.9998236,25.8511201 C39.0573091,27.6838461 38.5605704,29.4912866 37.5745281,31.03722 L37.5745281,31.03722 Z M32.2261422,39.0315752 C32.0180963,39.1821903 31.7580437,39.2424074 31.5049704,39.1985679 C31.2518971,39.1547285 31.027252,39.0105479 30.8819898,38.7987299 C30.6671546,38.4950932 30.4250748,38.2116827 30.1587582,37.9520198 C30.5433057,37.5992238 31.0195802,37.1723408 31.6052214,36.7066502 C31.9149879,37.0176222 32.1982111,37.3539498 32.4519316,37.7121185 C32.7525106,38.1391498 32.65161,38.7287872 32.2261422,39.0315752 Z M29.9858882,18.710531 C26.0522278,18.7144233 22.8648833,21.9033465 22.8629388,25.8370083 C22.8151464,27.3238542 23.2225687,28.7898361 24.0306932,30.0388075 C24.7362851,31.0971953 25.7523373,32.0885518 27.4422297,33.3409772 C28.4547539,34.0889046 29.2873523,34.7204092 29.9823602,35.2813547 C30.7126477,34.6921856 31.5593579,34.0571529 32.5260187,33.3409772 C34.395837,31.9580173 35.5882872,30.7267596 36.2832951,29.4602223 C36.8781529,28.3444538 37.1632159,27.0896892 37.1088375,25.8264244 C37.101062,21.8968961 33.9154223,18.714412 29.9858882,18.710531 L29.9858882,18.710531 Z M29.9858882,21.71988 C29.4598099,21.71988 29.0333392,21.2934094 29.0333392,20.7673311 C29.0333392,20.2412528 29.4598099,19.8147821 29.9858882,19.8147821 C30.5119664,19.8147821 30.9384371,20.2412528 30.9384371,20.7673311 C30.9404277,21.2893202 30.5219357,21.7156786 30,21.723408 L29.9858882,21.71988 Z" id="logo"></path>
        </g>
    </g>
</svg>