<?xml version="1.0" encoding="UTF-8"?>
<svg width="20px" height="20px" viewBox="0 0 20 20" version="1.1" xmlns="http://www.w3.org/2000/svg" xmlns:xlink="http://www.w3.org/1999/xlink">
    <!-- Generator: Sketch 46.2 (44496) - http://www.bohemiancoding.com/sketch -->
    <title>Rectangle 5</title>
    <desc>Created with Sketch.</desc>
    <defs></defs>
    <g id="尝试" stroke="none" stroke-width="1" fill="none" fill-rule="evenodd">
        <g id="Artboard" transform="translate(-407.000000, -129.000000)">
            <g id="Group-Copy" transform="translate(407.000000, 129.000000)">
                <rect id="Rectangle-5" x="0" y="0" width="20" height="20"></rect>
                <path d="M9,9 L3,9 L3,9 C2.44771525,9 2,9.44771525 2,10 C2,10.5522847 2.44771525,11 3,11 L9,11 L9,17 C9,17.5522847 9.44771525,18 10,18 C10.5522847,18 11,17.5522847 11,17 L11,11 L17,11 C17.5522847,11 18,10.5522847 18,10 C18,9.44771525 17.5522847,9 17,9 L11,9 L11,3 L11,3 C11,2.44771525 10.5522847,2 10,2 L10,2 L10,2 C9.44771525,2 9,2.44771525 9,3 L9,9 Z" id="Combined-Shape" fill="#B5C1D4"></path>
            </g>
        </g>
    </g>
</svg>