<?xml version="1.0" encoding="UTF-8"?>
<svg width="24px" height="24px" viewBox="0 0 24 24" version="1.1" xmlns="http://www.w3.org/2000/svg" xmlns:xlink="http://www.w3.org/1999/xlink">
    <!-- Generator: Sketch 43.1 (39012) - http://www.bohemiancoding.com/sketch -->
    <title>可申请</title>
    <desc>Created with Sketch.</desc>
    <defs></defs>
    <g id="Page-1" stroke="none" stroke-width="1" fill="none" fill-rule="evenodd">
        <g id="应用-应用配置-iOS" transform="translate(-397.000000, -654.000000)">
            <g id="Rectangle-29-Copy-2" transform="translate(281.000000, 514.000000)">
                <g id="Group-5">
                    <g id="删除-icon-copy" transform="translate(116.000000, 140.000000)">
                        <rect id="Rectangle-33" x="0" y="0" width="24" height="24"></rect>
                        <path d="M13.818418,11.5456659 C13.818418,11.294607 13.6149086,11.09112 13.3638721,11.09112 L7.00011711,11.09112 C6.74905819,11.09112 6.54557116,11.2946294 6.54557116,11.5456659 C6.54557116,11.7967248 6.74908053,12.0002119 7.00011711,12.0002119 L13.3638721,12.0002119 C13.614931,12.0002119 13.818418,11.7967025 13.818418,11.5456659 Z M10.6365517,21.0913095 L4.27277441,21.0913095 C3.26862809,21.0913095 2.90911423,20.7317957 2.90911423,19.7276494 L2.90911423,4.27277441 C2.90911423,3.26862809 3.26862809,2.90911423 4.27277441,2.90911423 L17.4548526,2.90911423 C18.4589989,2.90911423 18.8185128,3.26862809 18.8185128,4.27277441 L18.8185128,14.7275322 C18.8185128,14.9785912 19.0220222,15.1820782 19.2730587,15.1820782 C19.5241176,15.1820782 19.7276047,14.9785688 19.7276047,14.7275322 L19.7276047,3.81822846 C19.7276047,2.81408215 18.9135449,2 17.9093762,2 L3.81822846,2 C2.81408215,2 2,2.81405981 2,3.81822846 L2,20.1822176 C2,21.1863863 2.81405981,22.0004461 3.81822846,22.0004461 L10.6365517,22.0004461 C10.8876106,22.0004461 11.0910977,21.7969367 11.0910977,21.5459002 C11.0910977,21.2948636 10.8875883,21.0913095 10.6365517,21.0913095 Z M13.3638721,6.54554883 L7.00011711,6.54554883 C6.74905819,6.54554883 6.54557116,6.74905819 6.54557116,7.00009477 C6.54557116,7.25113135 6.74908053,7.45464072 7.00011711,7.45464072 L13.3638721,7.45464072 C13.614931,7.45464072 13.818418,7.25113135 13.818418,7.00009477 C13.818418,6.74905819 13.614931,6.54554883 13.3638721,6.54554883 Z M7.00011711,15.6366465 C6.74905819,15.6366465 6.54557116,15.8401558 6.54557116,16.0911924 C6.54557116,16.3422513 6.74908053,16.5457607 7.00011711,16.5457607 L10.1820058,16.5457607 C10.4330647,16.5457607 10.6365517,16.3422513 10.6365517,16.0911924 C10.6365517,15.8401335 10.4330423,15.6366465 10.1820058,15.6366465 L7.00011711,15.6366465 Z M21.8769156,16.2182071 C21.7266733,16.0666918 21.4055073,16.0402034 21.2280843,16.2164874 L16.3051319,20.918666 L13.6879192,18.4101763 C13.5111439,18.2333117 13.2095873,18.2333117 13.032812,18.4101763 C12.855992,18.5870856 12.8560367,18.8595854 13.032812,19.0364724 L15.9862886,21.8673565 C16.1630639,22.0442212 16.4496566,22.0441765 16.6264766,21.8673118 C16.6277273,21.8660388 16.628777,21.8646541 16.6300277,21.863381 L21.8769156,16.8445255 C22.0543162,16.6681745 22.0271802,16.3697224 21.8769156,16.2182071 Z" id="Shape" stroke="#7ED321" fill="#85C0E9" fill-rule="nonzero"></path>
                    </g>
                </g>
            </g>
        </g>
    </g>
</svg>