<?xml version="1.0" encoding="UTF-8"?>
<svg width="24px" height="24px" viewBox="0 0 24 24" version="1.1" xmlns="http://www.w3.org/2000/svg" xmlns:xlink="http://www.w3.org/1999/xlink">
    <!-- Generator: Sketch 43.1 (39012) - http://www.bohemiancoding.com/sketch -->
    <title>配置</title>
    <desc>Created with Sketch.</desc>
    <defs></defs>
    <g id="Page-1" stroke="none" stroke-width="1" fill="none" fill-rule="evenodd">
        <g id="应用-应用配置-iOS" transform="translate(-758.000000, -459.000000)">
            <g id="Rectangle-29-Copy" transform="translate(642.000000, 319.000000)">
                <g id="Group-5">
                    <g id="删除-icon-copy-2" transform="translate(116.000000, 140.000000)">
                        <rect id="Rectangle-33" x="0" y="0" width="24" height="24"></rect>
                        <path d="M21.9147399,14.6781551 C21.943631,14.8502453 21.9373503,15.0562512 21.8921295,15.298685 C21.8506771,15.5411187 21.7790775,15.788577 21.6785868,16.0372915 C21.5780962,16.287262 21.4575074,16.5121099 21.3155643,16.7118351 C21.1736212,16.9128165 21.0140922,17.0547596 20.8445142,17.1401766 C20.6724239,17.2268499 20.5229441,17.2695584 20.3935623,17.2695584 C20.2654367,17.2695584 20.1234936,17.2419235 19.9664769,17.1841413 C19.8245339,17.1414328 19.6449068,17.1024926 19.4313641,17.0660648 C19.2153091,17.030893 18.9992542,17.0246124 18.7769185,17.0447105 C18.5558391,17.0660648 18.3347596,17.1125417 18.1149362,17.1828852 C17.8951129,17.2532287 17.7029244,17.3763297 17.54842,17.5471639 C17.2054956,17.9039058 17.0032581,18.310893 16.9467321,18.7681256 C16.8902061,19.2253582 16.9542689,19.6599804 17.1401766,20.0745044 C17.2821197,20.3609028 17.2607655,20.644789 17.0761138,20.9311874 C16.9906968,21.0454956 16.8525221,21.1635721 16.6691266,21.2841609 C16.4832188,21.4060059 16.2784691,21.5165456 16.0586457,21.6170363 C15.8388224,21.717527 15.6051816,21.7954073 15.3614917,21.8531894 C15.1190579,21.9084593 14.9055152,21.9373503 14.7183513,21.9373503 C14.5902257,21.9373503 14.470893,21.887105 14.3553288,21.7878705 C14.2422767,21.6873798 14.1643965,21.5793523 14.1191757,21.4663003 L14.0978214,21.4663003 C13.9408047,21.0228852 13.6732483,20.6422767 13.2951521,20.3207066 C12.9170559,19.9991364 12.4786654,19.8383513 11.9774681,19.8383513 C11.4926006,19.8383513 11.0529539,19.9991364 10.6610402,20.3207066 C10.2678705,20.6422767 9.99277723,21.0166045 9.83576055,21.444946 C9.76416094,21.6170363 9.6573896,21.7413935 9.51419038,21.8205299 C9.37350343,21.8984102 9.21648675,21.9373503 9.04439647,21.9373503 C8.84467125,21.9373503 8.61982336,21.9021786 8.3698528,21.8293229 C8.11988224,21.7577233 7.86991168,21.6685378 7.61994112,21.5617664 C7.36997056,21.4549951 7.14512267,21.3293817 6.94539745,21.1861825 C6.74567223,21.0442395 6.59619235,20.9010402 6.49570167,20.7590972 C6.42410206,20.6586065 6.38516192,20.5405299 6.37762512,20.4061237 C6.37008832,20.2704612 6.42410206,20.0807851 6.53841021,19.8383513 C6.69542689,19.5092444 6.7557213,19.1349166 6.72054956,18.7128557 C6.68537782,18.292051 6.50323847,17.9026497 6.1741315,17.5459078 C5.97440628,17.3311089 5.73197252,17.1929342 5.44683023,17.1288714 C5.1604318,17.0635525 4.8903631,17.039686 4.63285574,17.0535034 C4.33263984,17.0673209 4.02614328,17.125103 3.71210991,17.2255937 C3.51238469,17.2821197 3.31265947,17.2670461 3.11167812,17.181629 C2.95466143,17.125103 2.80894995,16.993209 2.6720314,16.7872031 C2.53636899,16.5799411 2.41578018,16.3500687 2.3077527,16.1013543 C2.20098135,15.8513837 2.11933268,15.5951325 2.06155054,15.3300883 C2.00502453,15.0663003 1.98995093,14.8489892 2.018842,14.6768989 C2.06155054,14.3628656 2.20349362,14.1631403 2.44718351,14.0777233 C2.87552502,13.905633 3.25990186,13.6242591 3.6028263,13.2310893 C3.94575074,12.8379195 4.11658489,12.3995289 4.11658489,11.9134053 C4.11658489,11.4147203 3.94575074,10.978842 3.6028263,10.6070265 C3.25990186,10.235211 2.87426889,9.9651423 2.44718351,9.79305201 C2.32157017,9.75285574 2.21479882,9.6498528 2.12938175,9.48529931 C2.04396467,9.32074583 2,9.15242395 2,8.98284593 C2,8.79693817 2.02889107,8.58967615 2.08541708,8.36105986 C2.14194308,8.13244357 2.21731109,7.91136408 2.31026497,7.69656526 C2.40321884,7.48302257 2.51124632,7.28706575 2.63183513,7.10743867 C2.75368008,6.93032385 2.88557409,6.7971737 3.02751717,6.71175662 C3.14182532,6.64015702 3.2536212,6.61252208 3.36039254,6.62633955 C3.46716389,6.64015702 3.58524043,6.66904809 3.71336605,6.71175662 C4.14170756,6.88384691 4.58763494,6.93660451 5.05240432,6.87254171 C5.51591757,6.8084789 5.92667321,6.60498528 6.28341511,6.26331698 C6.45424926,6.09122669 6.57860648,5.88019627 6.65774289,5.63148184 C6.73562316,5.38025515 6.78712463,5.13405299 6.80722277,4.89161923 C6.82983317,4.64918548 6.82983317,4.42810599 6.80722277,4.22838077 C6.78712463,4.02739941 6.76828263,3.88545633 6.75446516,3.80003925 C6.72557409,3.71462218 6.70045142,3.6141315 6.67909715,3.49982336 C6.65774289,3.38551521 6.66904809,3.28502453 6.71050049,3.19960746 C6.79591757,2.99988224 6.94916585,2.82527969 7.17150147,2.6757998 C7.39258096,2.52631992 7.63124632,2.40070658 7.88875368,2.3002159 C8.14626104,2.20098135 8.3962316,2.12686948 8.63866536,2.07536801 C8.88109912,2.02512267 9.07454367,2 9.21648675,2 C9.40113837,2 9.54810599,2.06029441 9.65613346,2.18213935 C9.76290481,2.3039843 9.83701668,2.42959764 9.87972522,2.55772326 C10.0367419,2.94335623 10.2942493,3.28125613 10.6509912,3.57519136 C11.0077331,3.86787046 11.4297939,4.01483808 11.9146614,4.01483808 C12.4146026,4.01483808 12.8567615,3.87540726 13.2423945,3.59654563 C13.6280275,3.317684 13.8993523,2.9647105 14.056369,2.53636899 C14.112895,2.42206084 14.2033366,2.3039843 14.3239254,2.18339549 C14.4445142,2.06155054 14.5688714,2.00125613 14.6995093,2.00125613 C14.8979784,2.00125613 15.1165456,2.02889107 15.3526987,2.08667321 C15.5888518,2.14319921 15.8212365,2.22233562 16.0473405,2.3228263 C16.2784691,2.42206084 16.4894995,2.55144259 16.6804318,2.70845927 C16.8738763,2.86547596 17.0258685,3.03631011 17.1414328,3.22221786 C17.2130324,3.33652601 17.2343867,3.46088322 17.2054956,3.59654563 C17.1766045,3.73220805 17.1489696,3.82893032 17.1200785,3.88545633 C16.9341708,4.29998037 16.8776447,4.73460255 16.9479882,5.19183513 C17.0195878,5.64781158 17.228106,6.04851816 17.5685182,6.39144259 C17.9114426,6.73436703 18.3335034,6.92278705 18.8321884,6.95921492 C19.3321295,6.99438665 19.7968989,6.91273798 20.2252404,6.71301276 C20.3382924,6.64141315 20.4777233,6.61252208 20.6422767,6.62759568 C20.8068302,6.64266928 20.9437488,6.70673209 21.0593131,6.8197841 C21.2728557,7.01950932 21.4612758,7.32349362 21.6258292,7.73048086 C21.7903827,8.13746811 21.9009225,8.54822375 21.9574485,8.96149166 C21.9863395,9.20392542 21.9473994,9.39360157 21.8418842,9.52926398 C21.7338567,9.66367026 21.623317,9.75411187 21.5077527,9.79682041 C21.0655937,9.9538371 20.6887537,10.2289303 20.3747203,10.620844 C20.0606869,11.0127576 19.9036703,11.4599411 19.9036703,11.9586261 C19.9036703,12.4447498 20.0355643,12.8693229 20.2980962,13.2336016 C20.5631403,13.5966241 20.908577,13.8578999 21.3356624,14.0149166 C21.4361531,14.0714426 21.5215702,14.1292247 21.5931698,14.1857507 C21.7501865,14.3138763 21.8582139,14.4784298 21.9147399,14.6781551 L21.9147399,14.6781551 Z M11.95737,16.6050638 C12.5992542,16.6050638 13.2072228,16.4832188 13.7762512,16.2407851 C14.347792,15.9983513 14.8439647,15.6629637 15.2660255,15.2346222 C15.6880864,14.8050245 16.0197056,14.3101079 16.2621394,13.746104 C16.5045731,13.1821001 16.6251619,12.5778999 16.6251619,11.9372718 C16.6251619,11.2941315 16.5045731,10.6911874 16.2621394,10.1284396 C16.0197056,9.56443572 15.6880864,9.07077527 15.2660255,8.64997056 C14.8439647,8.22916585 14.3490481,7.89629048 13.7762512,7.65385672 C13.2072228,7.41142296 12.597998,7.28957802 11.95737,7.28957802 C11.3154858,7.28957802 10.7112856,7.41142296 10.1472816,7.65385672 C9.58453386,7.89629048 9.09087341,8.22916585 8.67132483,8.64997056 C8.25052012,9.07077527 7.91764475,9.56443572 7.67521099,10.1284396 C7.43277723,10.6911874 7.31093229,11.2953876 7.31093229,11.9372718 C7.31093229,12.579156 7.43277723,13.1821001 7.67521099,13.746104 C7.91764475,14.3088518 8.25052012,14.8050245 8.67132483,15.2346222 C9.09212954,15.6629637 9.58578999,15.9970952 10.1485378,16.2407851 C10.7125417,16.4832188 11.3154858,16.6050638 11.95737,16.6050638 L11.95737,16.6050638 Z" id="Shape" fill="#85C0E9" fill-rule="nonzero"></path>
                    </g>
                </g>
            </g>
        </g>
    </g>
</svg>