<?xml version="1.0" encoding="UTF-8"?>
<svg width="24px" height="24px" viewBox="0 0 24 24" version="1.1" xmlns="http://www.w3.org/2000/svg" xmlns:xlink="http://www.w3.org/1999/xlink">
    <!-- Generator: Sketch 42 (36781) - http://www.bohemiancoding.com/sketch -->
    <title>删除-icon</title>
    <desc>Created with Sketch.</desc>
    <defs></defs>
    <g id="Page-1" stroke="none" stroke-width="1" fill="none" fill-rule="evenodd">
        <g id="组件列表-02-sm" transform="translate(-435.000000, -231.000000)">
            <g id="Group-3" transform="translate(400.000000, 91.000000)">
                <g id="Group-6" transform="translate(1.000000, 82.000000)">
                    <g id="删除-icon" transform="translate(34.000000, 58.000000)">
                        <rect id="Rectangle-33" x="0" y="0" width="24" height="24"></rect>
                        <path d="M16.9233941,4.58807459 C17.8793004,4.72262322 18.8740033,4.54945095 19.6545468,4.68224134 C20.9186063,4.89729432 21.5593264,5.97224216 21.4204543,7.55468736 L19.8899781,7.55468736 C19.8468579,10.3618479 19.8665156,13.1436437 19.8665156,15.960143 C19.8665156,17.3817237 19.9848942,18.8767757 19.8429956,20.1510676 C19.7087352,21.3558082 18.8263002,22.0895133 17.74749,22.270122 C16.6837258,22.4481943 15.2720893,22.3172198 14.0981035,22.3172198 C11.6363363,22.3172198 9.14182554,22.3648941 6.72862615,22.3172198 C5.55340096,22.2939592 4.68756844,21.9209816 4.16225808,21.210566 C3.63689008,20.500208 3.69136671,19.4252026 3.69136671,18.1498153 L3.69136671,7.55468736 L2.23156598,7.55468736 C1.99452059,6.09872018 2.62483536,5.05242301 3.69136671,4.70579023 C4.47534017,4.45093184 5.52051322,4.65679009 6.63440176,4.58807459 C6.54447209,3.02090591 6.62915586,1.83043303 7.97648685,1.66853079 C8.57864096,1.5961547 9.38276213,1.66853079 10.1190037,1.66853079 L14.4041815,1.66853079 C15.2212156,1.66853079 16.057331,1.58966938 16.4761093,1.95105985 C17.0560692,2.45166837 16.9042264,3.60478585 16.9233941,4.58807459 Z M8.09411602,3.22246944 L8.09411602,4.63514356 L15.4635646,4.63514356 L15.4635646,3.15185158 L8.11763608,3.15185158 C8.090196,3.15580042 8.09206954,3.18906287 8.09411602,3.22246944 Z M6.65789301,7.71950078 L6.65789301,16.6900146 C6.65789301,17.4562903 6.48172308,19.0889175 6.94042206,19.4211961 C7.12290436,19.55341 7.59342103,19.5729236 7.81158696,19.4211961 C8.28616775,19.0913386 8.11766491,17.5051752 8.11766491,16.7135635 L8.11766491,7.64885411 L6.6814419,7.64885411 C6.65400182,7.65280294 6.65584653,7.68606539 6.65789301,7.71950078 Z M11.0371799,7.71950078 L11.0371799,16.4074855 C11.0371799,17.0929399 10.8779294,18.7154499 11.1548955,19.1857648 C11.3378966,19.4964834 11.9537708,19.6373444 12.2614917,19.3977048 C12.6787711,19.0727474 12.4969806,17.3544277 12.4969806,16.6429744 L12.4969806,7.64891175 L11.0607288,7.64891175 C11.0332887,7.65280294 11.0351622,7.68606539 11.0371799,7.71950078 Z M15.4635646,7.71950078 L15.4635646,16.807759 C15.4635646,17.7385312 15.2821199,19.1661647 15.8873581,19.4211961 C16.1508924,19.5322823 16.6185844,19.4463591 16.7349453,19.350607 C17.1300882,19.0253037 16.9469142,17.2812445 16.9469142,16.5958767 L16.9469142,7.64891175 L15.4871135,7.64891175 C15.4596734,7.65280294 15.4615469,7.68606539 15.4635646,7.71950078 Z" id="Shape" fill="#ddd" fill-rule="nonzero"></path>
                    </g>
                </g>
            </g>
        </g>
    </g>
</svg>