<?xml version="1.0" encoding="UTF-8"?>
<svg width="24px" height="24px" viewBox="0 0 24 24" version="1.1" xmlns="http://www.w3.org/2000/svg" xmlns:xlink="http://www.w3.org/1999/xlink">
    <!-- Generator: Sketch 42 (36781) - http://www.bohemiancoding.com/sketch -->
    <title>编辑-icon</title>
    <desc>Created with Sketch.</desc>
    <defs></defs>
    <g id="Page-1" stroke="none" stroke-width="1" fill="none" fill-rule="evenodd">
        <g id="组件列表-02-sm" transform="translate(-700.000000, -288.000000)">
            <g id="编辑-icon" transform="translate(700.000000, 288.000000)">
                <rect id="Rectangle-33-Copy" x="0" y="0" width="24" height="24"></rect>
                <path d="M19.6078835,6.80863468 L16.0873053,3.28820069 L17.8483241,1.52794077 C18.4318296,0.945231866 19.3766276,0.945231866 19.9601045,1.52794077 L21.3681583,2.93596556 C21.9516638,3.51944709 21.9516638,4.46569446 21.3681583,5.04914741 L19.6078835,6.80863468 Z M9.38022638,17.0358728 L5.85961952,13.5154388 L15.4305111,4.01974175 L18.9510607,7.54020437 L9.38022638,17.0358728 Z M3.03134944,19.9230047 L5.17334956,14.2016806 L8.66445205,17.6934413 L3.03134944,19.9230047 Z M18.8414853,21.1261671 C19.3342741,21.1261671 19.7333128,21.5252181 19.7333128,22.0180153 C19.7333128,22.5100399 19.3342741,22.9090909 18.8414853,22.9090909 L3.07293029,22.9090909 C2.58088552,22.9090909 2.18181818,22.5100685 2.18181818,22.0180153 C2.18181818,21.5252181 2.58088555,21.1261671 3.07293029,21.1261671 L18.8414853,21.1261671 Z" id="Shape" fill="#85C1E9" fill-rule="nonzero"></path>
            </g>
        </g>
    </g>
</svg>