<?xml version="1.0" encoding="UTF-8"?>
<svg width="24px" height="24px" viewBox="0 0 24 24" version="1.1" xmlns="http://www.w3.org/2000/svg" xmlns:xlink="http://www.w3.org/1999/xlink">
    <!-- Generator: Sketch 42 (36781) - http://www.bohemiancoding.com/sketch -->
    <title>置顶-icon</title>
    <desc>Created with Sketch.</desc>
    <defs></defs>
    <g id="Page-1" stroke="none" stroke-width="1" fill="none" fill-rule="evenodd">
        <g id="组件列表-02-sm" transform="translate(-621.000000, -231.000000)">
            <g id="Group-3" transform="translate(400.000000, 91.000000)">
                <g id="Group-6" transform="translate(1.000000, 82.000000)">
                    <g id="置顶-icon" transform="translate(220.000000, 58.000000)">
                        <rect id="Rectangle-33-Copy-2" x="0" y="0" width="24" height="24"></rect>
                        <path d="M7.53323865,19.2400568 L10.4671875,19.2400568 L10.4671875,20.0113636 L9.48281251,20.0113636 L9.48281251,22.3636364 L8.51761365,22.3636364 L8.51761365,20.0113636 L7.53323865,20.0113636 L7.53323865,19.2400568 Z M10.306108,20.8039773 C10.306108,20.2940315 10.448152,19.8970185 10.7322443,19.6129261 C11.0163366,19.3288338 11.4119293,19.1867898 11.9190341,19.1867898 C12.4389231,19.1867898 12.8394872,19.326348 13.1207386,19.6054688 C13.40199,19.8845895 13.5426136,20.2755657 13.5426136,20.7784091 C13.5426136,21.1434677 13.4811796,21.4428255 13.3583097,21.6764915 C13.2354397,21.9101574 13.0578847,22.0919738 12.8256392,22.221946 C12.5933937,22.3519183 12.303979,22.4169034 11.9573864,22.4169034 C11.6051119,22.4169034 11.3135665,22.360796 11.0827415,22.2485795 C10.8519165,22.1363631 10.6647734,21.958808 10.5213068,21.7159091 C10.3778402,21.4730101 10.306108,21.1690359 10.306108,20.8039773 Z M11.2713068,20.8082386 C11.2713068,21.1235811 11.3299,21.3501414 11.4470881,21.4879261 C11.5642762,21.6257109 11.7237206,21.6946023 11.9254261,21.6946023 C12.1328135,21.6946023 12.2933233,21.6271314 12.4069602,21.4921875 C12.5205972,21.3572436 12.5774148,21.1150586 12.5774148,20.765625 C12.5774148,20.4715894 12.5181114,20.2567478 12.3995028,20.1210938 C12.2808943,19.9854397 12.1200294,19.9176136 11.9169034,19.9176136 C11.7223002,19.9176136 11.5660517,19.986505 11.4481534,20.1242898 C11.3302551,20.2620746 11.2713068,20.4900552 11.2713068,20.8082386 Z M13.7309659,19.2400568 L15.3353693,19.2400568 C15.6848029,19.2400568 15.946519,19.3231526 16.1205256,19.4893466 C16.2945321,19.6555406 16.3815341,19.8920439 16.3815341,20.1988636 C16.3815341,20.5142061 16.2867197,20.7606525 16.0970881,20.9382102 C15.9074564,21.1157679 15.6180417,21.2045455 15.2288352,21.2045455 L14.7004261,21.2045455 L14.7004261,22.3636364 L13.7309659,22.3636364 L13.7309659,19.2400568 Z M14.7004261,20.571733 L14.7004261,19.875 L14.9752841,19.875 C15.1556827,19.875 15.2785508,19.9090906 15.343892,19.9772727 C15.4092333,20.0454549 15.4419034,20.1285506 15.4419034,20.2265625 C15.4419034,20.3274153 15.4042617,20.4101559 15.3289773,20.4747869 C15.2536928,20.5394179 15.1230123,20.571733 14.9369318,20.571733 L14.7004261,20.571733 Z M9.03350304,17.7670066 C8.14251357,17.7660508 7.42058258,17.1060395 7.41988575,16.2917885 L7.41988575,13.6014091 C7.41988575,13.5938973 4.36463544,13.5852297 4.36463544,13.5852297 C3.58880926,13.5852297 3.30554102,13.1668756 3.22018117,12.9865905 C3.13482132,12.8068831 2.99255491,12.331901 3.52115367,11.8130033 L10.8121494,4.65822417 C11.1064874,4.36807676 11.5192431,4.20238228 11.9521776,4.20057716 C12.3802414,4.20057716 12.7962917,4.36757209 13.0922058,4.65822417 L20.3838338,11.8124254 C20.9124326,12.3313232 20.7701662,12.8057274 20.6848063,12.9860126 C20.5988142,13.16572 20.3161782,13.5846519 19.540352,13.5846519 L16.5034383,13.5846519 C16.4952185,13.5846519 16.485734,16.2912106 16.485734,16.2912106 C16.4846895,17.105649 15.7626788,17.7657331 14.8714844,17.7670066 L9.03350304,17.7670066 Z M20.0656798,3.24416038 L4.37527496,3.24416038 C3.93457574,3.24416038 3.57731844,2.88424282 3.57731844,2.44026201 C3.57731844,1.9962812 3.93457574,1.63636364 4.37527496,1.63636364 L20.0656798,1.63636364 C20.5063791,1.63636364 20.8636364,1.9962812 20.8636364,2.44026201 C20.8636364,2.88424282 20.5063791,3.24416038 20.0656798,3.24416038 Z" id="Combined-Shape" fill="#85C1E9"></path>
                    </g>
                </g>
            </g>
        </g>
    </g>
</svg>