<?xml version="1.0" encoding="UTF-8"?>
<svg width="24px" height="24px" viewBox="0 0 24 24" version="1.1" xmlns="http://www.w3.org/2000/svg" xmlns:xlink="http://www.w3.org/1999/xlink">
    <!-- Generator: Sketch 43.1 (39012) - http://www.bohemiancoding.com/sketch -->
    <title>更新</title>
    <desc>Created with Sketch.</desc>
    <defs></defs>
    <g id="Page-1" stroke="none" stroke-width="1" fill="none" fill-rule="evenodd">
        <g id="应用-应用配置-iOS" transform="translate(-844.000000, -459.000000)">
            <g id="Rectangle-29-Copy" transform="translate(642.000000, 319.000000)">
                <g id="Group-5">
                    <g id="删除-icon-copy-4" transform="translate(202.000000, 140.000000)">
                        <rect id="Rectangle-33" x="0" y="0" width="24" height="24"></rect>
                        <path d="M17.2287854,15.6386893 C16.0613336,17.2665847 14.1547527,18.3209508 12.0026496,18.3209508 C8.47051878,18.3209508 5.59509726,15.5873262 5.5747692,11.9208477 L7.671904,11.9208477 L4.33297663,8.594886 L1,11.9208477 L3.10191276,11.9208477 C3.12252316,16.775801 7.09906968,20.7935683 12.0026713,20.7935683 C14.8422798,20.7935683 17.3688666,19.4674447 18.999151,17.3972837 L17.2287637,15.6386893 L17.2287854,15.6386893 Z M21.625228,11.920826 L20.7542923,11.920826 L20.7542923,11.9492983 C20.7542923,11.9331184 20.8300447,11.9173511 20.8300447,11.9013667 C20.8300447,6.98516857 16.8818185,3 11.9654032,3 C9.10312108,3 6.5760782,4.35285849 4.94813936,6.45227368 L6.73320803,8.21781785 C7.89738041,6.55951723 9.82489753,5.47261753 11.9999783,5.47261753 C15.5452919,5.47261753 18.378776,8.35655252 18.378776,11.9013884 C18.378776,11.9173945 18.3267396,11.9332053 18.3267396,11.94932 C18.3267396,11.9496241 18.3267396,11.9208477 18.3267396,11.9208477 L16.328096,11.9208477 L19.6670017,15.2468094 L23,11.9208477 L21.6252932,11.9208477 L21.625228,11.920826 Z" id="Shape" fill="#7ED321" fill-rule="nonzero"></path>
                    </g>
                </g>
            </g>
        </g>
    </g>
</svg>