<?xml version="1.0" encoding="UTF-8"?>
<svg width="26px" height="26px" viewBox="0 0 26 26" version="1.1" xmlns="http://www.w3.org/2000/svg" xmlns:xlink="http://www.w3.org/1999/xlink">
    <!-- Generator: Sketch 48.2 (47327) - http://www.bohemiancoding.com/sketch -->
    <title>折线图</title>
    <desc>Created with Sketch.</desc>
    <defs></defs>
    <g id="应用数据" stroke="none" stroke-width="1" fill="none" fill-rule="evenodd" transform="translate(-1290.000000, -370.000000)">
        <g id="折线图" transform="translate(1290.000000, 370.000000)">
            <rect id="Rectangle-24-Copy" x="0" y="0" width="26" height="26"></rect>
            <path d="M19.9304702,11.5459552 L16.2309782,17.0951931 C16.6422777,17.5543727 16.8923977,18.1609305 16.8923977,18.8259259 C16.8923977,20.2591067 15.7306467,21.4208577 14.2974659,21.4208577 C12.8642851,21.4208577 11.7025341,20.2591067 11.7025341,18.8259259 C11.7025341,18.6921235 11.7126601,18.5606868 11.7321877,18.4323405 L7.26918208,16.5195924 C6.79459518,17.1332973 6.05106256,17.52846 5.21520468,17.52846 C3.78202386,17.52846 2.62027291,16.3667091 2.62027291,14.9335283 C2.62027291,13.5003474 3.78202386,12.3385965 5.21520468,12.3385965 C6.6483855,12.3385965 7.81013644,13.5003474 7.81013644,14.9335283 C7.81013644,15.0673319 7.80001023,15.1987697 7.78048232,15.3271171 L12.2434772,17.2398764 C12.7180636,16.6261631 13.4616014,16.2309942 14.2974659,16.2309942 C14.596773,16.2309942 14.8842418,16.2816635 15.1517627,16.3748926 L18.8513273,10.825714 C18.4400015,10.3665285 18.1898636,9.75995109 18.1898636,9.09493176 C18.1898636,7.66175095 19.3516145,6.5 20.7847953,6.5 C22.2179761,6.5 23.3797271,7.66175095 23.3797271,9.09493176 C23.3797271,10.5281126 22.2179761,11.6898635 20.7847953,11.6898635 C20.4854777,11.6898635 20.1979992,11.6391906 19.9304702,11.5459552 Z M3.24873293,22.5997271 L22.7107212,22.5997271 C23.0740117,22.5997271 23.3594542,22.8851696 23.3594542,23.24846 C23.3594542,23.6117504 23.0740117,23.897193 22.7107212,23.897193 L3.24873293,23.897193 C2.88544247,23.897193 2.6,23.6117504 2.6,23.24846 C2.6,22.8851696 2.88544251,22.5997271 3.24873293,22.5997271 Z M5.21520468,16.2309942 C5.93179509,16.2309942 6.51267058,15.6501187 6.51267058,14.9335283 C6.51267058,14.2169378 5.93179509,13.6360624 5.21520468,13.6360624 C4.49861427,13.6360624 3.91773878,14.2169378 3.91773878,14.9335283 C3.91773878,15.6501187 4.49861427,16.2309942 5.21520468,16.2309942 Z M14.2974659,20.1233918 C15.0140563,20.1233918 15.5949318,19.5425163 15.5949318,18.8259259 C15.5949317,18.1093355 15.0140563,17.52846 14.2974659,17.52846 C13.5808755,17.52846 13,18.1093355 13,18.8259259 C13,19.5425163 13.5808755,20.1233918 14.2974659,20.1233918 Z M20.7847953,10.3923977 C21.5013857,10.3923977 22.0822612,9.81152217 22.0822612,9.09493176 C22.0822612,8.37834135 21.5013857,7.79746587 20.7847953,7.79746587 C20.0682049,7.79746587 19.4873294,8.37834135 19.4873294,9.09493176 C19.4873294,9.81152217 20.0682049,10.3923977 20.7847953,10.3923977 Z" id="Combined-Shape" fill="#3BBAF4" fill-rule="nonzero"></path>
        </g>
    </g>
</svg>