<?xml version="1.0" encoding="UTF-8"?>
<svg width="26px" height="26px" viewBox="0 0 26 26" version="1.1" xmlns="http://www.w3.org/2000/svg" xmlns:xlink="http://www.w3.org/1999/xlink">
    <!-- Generator: Sketch 48.2 (47327) - http://www.bohemiancoding.com/sketch -->
    <title>柱状图</title>
    <desc>Created with Sketch.</desc>
    <defs></defs>
    <g id="page1" stroke="none" stroke-width="1" fill="none" fill-rule="evenodd">
        <g id="柱状图">
            <rect id="Rectangle-24" x="0" y="0" width="26" height="26"></rect>
            <path d="M3.24873293,22.62 L22.7107212,22.62 C23.0740117,22.62 23.3594542,22.9054425 23.3594542,23.2687329 C23.3594542,23.6320234 23.0740117,23.9174659 22.7107212,23.9174659 L3.24873293,23.9174659 C2.88544247,23.9174659 2.6,23.6320234 2.6,23.2687329 C2.6,22.9054425 2.88544251,22.62 3.24873293,22.62 Z M5.21520468,9.86428849 L7.81013644,9.86428849 C8.52374269,9.86428849 9.10760234,10.4481481 9.10760234,11.1617544 L9.10760234,19.9845224 C9.10760234,20.6981287 8.52374269,21.2819883 7.81013644,21.2819883 L5.21520468,21.2819883 C4.50159843,21.2819883 3.91773878,20.6981287 3.91773878,19.9845224 L3.91773878,11.1617544 C3.91773878,10.4481481 4.50159843,9.86428849 5.21520468,9.86428849 Z M11.7025341,1.82 L14.2974659,1.82 C15.0110721,1.82 15.5949318,2.40385965 15.5949318,3.1174659 L15.5949318,19.9845224 C15.5949318,20.6981287 15.0110721,21.2819883 14.2974659,21.2819883 L11.7025341,21.2819883 C10.9889279,21.2819883 10.4050682,20.6981287 10.4050682,19.9845224 L10.4050682,3.1174659 C10.4050682,2.40385965 10.9889279,1.82 11.7025341,1.82 Z M18.1898636,7.00986356 L20.7847953,7.00986356 C21.4984016,7.00986356 22.0822612,7.59372321 22.0822612,8.30732942 L22.0822612,19.9845224 C22.0822612,20.6981287 21.4984016,21.2819883 20.7847953,21.2819883 L18.1898636,21.2819883 C17.4762573,21.2819883 16.8923977,20.6981287 16.8923977,19.9845224 L16.8923977,8.30732942 C16.8923977,7.59372318 17.4762573,7.00986353 18.1898636,7.00986356 Z M5.21520468,11.1617544 L5.21520468,19.9845224 L7.81013644,19.9845224 L7.81013644,11.1617544 L5.21520468,11.1617544 Z M11.7025341,3.1174659 L11.7025341,19.9845224 L14.2974659,19.9845224 L14.2974659,3.1174659 L11.7025341,3.1174659 Z M18.1898636,8.30732942 L18.1898636,19.9845224 L20.7847953,19.9845224 L20.7847953,8.30732942 L18.1898636,8.30732942 Z" id="Combined-Shape" fill="#3BBAF4" fill-rule="nonzero"></path>
        </g>
    </g>
</svg>