<?xml version="1.0" standalone="no"?><!DOCTYPE svg PUBLIC "-//W3C//DTD SVG 1.1//EN" "http://www.w3.org/Graphics/SVG/1.1/DTD/svg11.dtd"><svg t="1505359178113" class="icon" style="" viewBox="0 0 1024 1024" version="1.1" xmlns="http://www.w3.org/2000/svg" p-id="13916" xmlns:xlink="http://www.w3.org/1999/xlink" width="25" height="25"><defs><style type="text/css"></style></defs><path d="M512 1023.642791C229.428391 1023.642791 0.357209 794.571609 0.357209 512S229.428391 0.357209 512 0.357209 1023.642791 229.428391 1023.642791 512 794.571609 1023.642791 512 1023.642791z m0-45.99427c257.171647 0 465.648521-208.476874 465.648521-465.648521S769.171647 46.351479 512 46.351479 46.351479 254.828353 46.351479 512s208.476874 465.648521 465.648521 465.648521z" p-id="13917" fill="#1afa29"></path><path d="M449.135926 700.978009c-0.952558 1.34787-1.524093 2.905302-2.733842 4.138865-5.662958 5.667721-13.135777 8.282493-20.556205 8.077693-7.420428 0.176223-14.893247-2.414735-20.527628-8.077693-1.209749-1.209749-1.786047-2.762419-2.733842-4.110288l-141.064335-141.035758a28.100465 28.100465 0 0 1 0-39.707386 28.100465 28.100465 0 0 1 39.707386 0l124.589842 124.613656 268.354679-268.383256a28.100465 28.100465 0 0 1 39.707386 0 28.043312 28.043312 0 0 1 0 39.712149L449.131163 700.973247z" p-id="13918" fill="#1afa29"></path></svg>