<?xml version="1.0" standalone="no"?><!DOCTYPE svg PUBLIC "-//W3C//DTD SVG 1.1//EN" "http://www.w3.org/Graphics/SVG/1.1/DTD/svg11.dtd"><svg t="1515509209444" class="icon" style="" viewBox="0 0 1024 1024" version="1.1" xmlns="http://www.w3.org/2000/svg" p-id="10099" xmlns:xlink="http://www.w3.org/1999/xlink" width="32" height="32"><defs><style type="text/css"></style></defs><path d="M796.78208 128.24064H222.70208c-52.8512 0-95.68 42.82368-95.68 95.67744v31.89248h765.44V223.91808c0.00256-52.85376-42.82368-95.67744-95.68-95.67744m-167.12704-63.78496l14.07744 100.6592h-267.9808l14.08-100.6592h239.82336M637.31456 0.67328h-255.14752c-26.3168 0-50.79552 21.30432-54.47168 47.40352l-18.65728 133.45536c-3.64288 26.06848 14.91968 47.37024 41.23648 47.37024H669.2096c26.31424 0 44.88192-21.30176 41.20832-47.3984l-18.65728-133.45792C688.11264 21.9776 663.63136 0.67328 637.31456 0.67328m175.41632 318.91968H206.75584c-35.06944 0-61.19936 28.59008-58.02496 63.53408l52.26496 574.55616c3.14624 34.944 34.47808 63.53152 69.54752 63.53152h478.39744c35.06944 0 66.4064-28.59008 69.55008-63.53152l52.26496-574.55616c3.17696-34.944-22.95808-63.53408-58.02496-63.53408M382.1696 893.6448H286.4896L254.59456 447.16032h127.57248v446.4896-0.00512z m191.36 0h-127.57248V447.16032h127.57248v446.4896-0.00512z m159.4624 0h-95.67744V447.16032h127.57504l-31.8976 446.4896v-0.00512z" p-id="10100" fill="#b5c1d4"></path></svg>