<?xml version="1.0" encoding="UTF-8"?>
<svg width="18px" height="18px" viewBox="0 0 18 18" version="1.1" xmlns="http://www.w3.org/2000/svg" xmlns:xlink="http://www.w3.org/1999/xlink">
    <!-- Generator: Sketch 42 (36781) - http://www.bohemiancoding.com/sketch -->
    <title>删除</title>
    <desc>Created with Sketch.</desc>
    <defs></defs>
    <g id="Page-1" stroke="none" stroke-width="1" fill="none" fill-rule="evenodd">
        <g id="标签管理" transform="translate(-273.000000, -439.000000)">
            <g id="Group-Copy" transform="translate(100.000000, 429.000000)">
                <g id="删除" transform="translate(173.000000, 10.000000)">
                    <ellipse id="Oval-4" fill="#0785DB" cx="9" cy="9" rx="9" ry="9"></ellipse>
                    <rect id="Rectangle-10-Copy-10" x="3" y="3" width="12" height="12"></rect>
                    <path d="M10.4448661,8.96516387 L13.7348661,5.67016387 C14.0921747,5.2744395 14.0761786,4.66798249 13.6985058,4.29164425 C13.3208331,3.915306 12.7143232,3.90145673 12.3198661,4.26016387 L9.03486614,7.54516387 L5.73986614,4.26016387 C5.34310586,3.92038707 4.75167197,3.9432316 4.38230292,4.31260065 C4.01293387,4.6819697 3.99008934,5.27340359 4.32986614,5.67016387 L7.61486614,8.96516387 L4.32986614,12.2501639 C4.05598149,12.4974606 3.94054473,12.8754918 4.02955968,13.2336046 C4.11857462,13.5917175 4.397573,13.8717052 4.75536851,13.9619873 C5.11316401,14.0522693 5.49160146,13.9381714 5.73986614,13.6651639 L9.03486614,10.3751639 L12.3248661,13.6651639 C12.7156076,14.0559053 13.3491247,14.0559053 13.7398661,13.6651639 C14.1306076,13.2744224 14.1306076,12.6409053 13.7398661,12.2501639 L10.4448661,8.96516387 Z" id="Shape" fill="#FFFFFF"></path>
                </g>
            </g>
        </g>
    </g>
</svg>