<?xml version="1.0" standalone="no"?><!DOCTYPE svg PUBLIC "-//W3C//DTD SVG 1.1//EN" "http://www.w3.org/Graphics/SVG/1.1/DTD/svg11.dtd"><svg t="1515508503430" class="icon" style="" viewBox="0 0 1024 1024" version="1.1" xmlns="http://www.w3.org/2000/svg" p-id="5931" xmlns:xlink="http://www.w3.org/1999/xlink" width="32" height="32"><defs><style type="text/css"></style></defs><path d="M216.177778 722.488889l227.555556 227.555556c22.755556 22.755556 62.577778 22.755556 85.333333 0l227.555556-227.555556c22.755556-22.755556 22.755556-62.577778 0-85.333333-22.755556-22.755556-62.577778-22.755556-85.333333 0l-125.155556 125.155556L540.444444 113.777778c0-51.2-22.755556-56.888889-56.888889-56.888889-34.133333 0-56.888889 0-56.888889 56.888889L420.977778 756.622222l-125.155556-125.155556c-11.377778-11.377778-28.444444-17.066667-39.822222-17.066667-17.066667 0-28.444444 5.688889-39.822222 17.066667C193.422222 659.911111 193.422222 699.733333 216.177778 722.488889L216.177778 722.488889z" p-id="5932" fill="#b5c1d4"></path></svg>