<?xml version="1.0" standalone="no"?><!DOCTYPE svg PUBLIC "-//W3C//DTD SVG 1.1//EN" "http://www.w3.org/Graphics/SVG/1.1/DTD/svg11.dtd"><svg t="1515509111630" class="icon" style="" viewBox="0 0 1024 1024" version="1.1" xmlns="http://www.w3.org/2000/svg" p-id="9335" xmlns:xlink="http://www.w3.org/1999/xlink" width="32" height="32"><defs><style type="text/css"></style></defs><path d="M861.297778 263.509333L699.164444 101.319111 780.231111 20.252444a68.835556 68.835556 0 0 1 97.28 0l64.853333 64.853334a68.835556 68.835556 0 0 1 0 97.336889l-81.066666 81.066666zM390.172444 734.634667l-162.190222-162.161778L668.871111 135.025778l162.190222 162.190222-440.888889 437.418667zM97.678222 867.640889l98.673778-263.566222 160.824889 160.853333-259.498667 102.712889z m728.32 55.438222a41.073778 41.073778 0 1 1 0 82.119111H99.584a41.045333 41.045333 0 0 1 0-82.119111H826.026667z" p-id="9336" fill="#b5c1d4"></path></svg>