<?xml version="1.0" standalone="no"?><!DOCTYPE svg PUBLIC "-//W3C//DTD SVG 1.1//EN" "http://www.w3.org/Graphics/SVG/1.1/DTD/svg11.dtd"><svg t="1512700562016" class="icon" style="" viewBox="0 0 1024 1024" version="1.1" xmlns="http://www.w3.org/2000/svg" p-id="15020" xmlns:xlink="http://www.w3.org/1999/xlink" width="200" height="200"><defs><style type="text/css"></style></defs><path d="M862.3390425492543 244.51140683346165c-14.202934734696294 0-23.671556596622217 9.468623156464194-23.671556596622217 23.671556596622217s9.468623156464194 23.671556596622217 23.671556596622217 23.671556596622217c26.038713033007408 0 47.34311448778271 21.304401454775306 47.34311448778271 47.34311448778271v82.85044938271605H111.95068782111605v-175.16952192189632c0-26.038713033007408 21.304401454775306-47.34311448778271 47.343113193244434-47.34311448778271h168.0680552018173c11.835778298311109 0 23.671556596622217 2.3671551418469137 35.50733489493333 9.468623156464194l132.5607190123457 75.74898266263703c9.468623156464194 7.10146672007901 23.671556596622217 9.468623156464194 35.50733489493333 9.468623156464194h210.67685811136792c14.202934734696294 0 23.671556596622217-9.468623156464194 23.671556596622217-23.67155789116049s-9.468623156464194-23.671556596622217-23.671556596622217-23.671556596622217h-210.67685811136792c-4.734311578232097 0-7.10146672007901 0-11.835778298311109-2.3671551418469137l-132.5607190123457-75.74898266263703c-16.57008987654321-9.468623156464194-37.87449133131852-16.57008987654321-59.17889149155555-16.57008987654321h-168.0680552018173c-52.07742477147655 0-94.68622768102715 42.60880290955061-94.68622768102715 94.68622768102715v563.3830558024691c0 52.07742477147655 42.60880290955061 94.68622768102715 94.68622768102715 94.68622768102715h703.0452415348939c52.07742477147655 0 94.68622768102715-42.60880290955061 94.68622897556541-94.68622768102715V339.197634514489c0-52.07742477147655-42.60880290955061-94.68622768102715-94.68622897556541-94.68622768102715z m47.34311448778271 563.3830558024691c0 26.038713033007408-21.304401454775306 47.34311448778271-47.34311448778271 47.343113193244434H159.2938010143605c-26.038713033007408 0-47.34311448778271-21.304401454775306-47.343113193244434-47.343113193244434V467.0240419486024h795.3643140740738v340.87042068732825z" fill="#1296db" p-id="15021"></path></svg>