<?xml version="1.0" encoding="UTF-8"?>
<svg width="24px" height="24px" viewBox="0 0 24 24" version="1.1" xmlns="http://www.w3.org/2000/svg" xmlns:xlink="http://www.w3.org/1999/xlink">
    <!-- Generator: Sketch 47 (45396) - http://www.bohemiancoding.com/sketch -->
    <title>icon add</title>
    <desc>Created with Sketch.</desc>
    <defs></defs>
    <g id="page1" stroke="none" stroke-width="1" fill="none" fill-rule="evenodd">
        <g id="详情编辑" transform="translate(-826.000000, -508.000000)" fill="#C0CCDA">
            <g id="上传-上传图片-normal-copy-2" transform="translate(793.000000, 475.000000)">
                <g id="action" transform="translate(33.000000, 33.000000)">
                    <path d="M11,11 L1.00069463,11 C0.44746922,11 0,11.4477153 0,12 C0,12.5561352 0.448026248,13 1.00069463,13 L11,13 L11,22.9993054 C11,23.5525308 11.4477153,24 12,24 C12.5561352,24 13,23.5519738 13,22.9993054 L13,13 L22.9993054,13 C23.5525308,13 24,12.5522847 24,12 C24,11.4438648 23.5519738,11 22.9993054,11 L13,11 L13,1.00069463 C13,0.44746922 12.5522847,0 12,0 C11.4438648,0 11,0.448026248 11,1.00069463 L11,11 Z" id="icon-add"></path>
                </g>
            </g>
        </g>
    </g>
</svg>