<?xml version="1.0" encoding="UTF-8"?>
<svg width="296px" height="96px" viewBox="0 0 296 96" version="1.1" xmlns="http://www.w3.org/2000/svg" xmlns:xlink="http://www.w3.org/1999/xlink">
    <!-- Generator: Sketch 43.1 (39012) - http://www.bohemiancoding.com/sketch -->
    <title>logo-02</title>
    <desc>Created with Sketch.</desc>
    <defs></defs>
    <g id="Page-1" stroke="none" stroke-width="1" fill="none" fill-rule="evenodd">
        <g id="logo-02" fill-rule="nonzero">
            <g id="Group-5" transform="translate(34.000000, 18.000000)">
                <path d="M103.85,49.28 L103.85,6.36 L109.71,6.36 L109.71,44 L129.1,44 L129.1,49.27 L103.85,49.28 Z M134,49.28 L134,22.59 L129.7,22.59 L129.7,17.91 L139.57,17.91 L139.57,49.28 L134,49.28 Z M137,6.04 C137.919737,6.02060664 138.806522,6.38255955 139.45,7.04 C140.1028,7.67424452 140.46466,8.54994567 140.45,9.46 C140.452666,10.3784638 140.088988,11.2600782 139.439533,11.9095329 C138.790078,12.5589876 137.908464,12.9226661 136.99,12.92 C136.079946,12.9346599 135.204245,12.5727999 134.57,11.92 C133.532923,10.9393421 133.211529,9.41894439 133.76302,8.10248132 C134.314511,6.78601825 135.623612,5.94866601 137.05,6 L137,6.04 Z M145.27,57.87 L148.27,53.42 C151.51,55.5866667 154.51,56.67 157.27,56.67 C159.350416,56.7828825 161.422876,56.3338496 163.27,55.37 C164.542985,54.7798326 165.382893,53.5315293 165.45,52.13 C165.45,49.59 163.613333,48.32 159.94,48.32 C158.796076,48.3870649 157.659219,48.5442185 156.54,48.79 C155.276285,49.0591238 153.991318,49.2163984 152.7,49.26 C148.246667,49.26 146.02,47.5933333 146.02,44.26 C146.072124,43.1285014 146.653742,42.0875162 147.59,41.45 C148.731993,40.5625042 150.057475,39.9407577 151.47,39.63 C147.056667,37.5566667 144.85,33.9633333 144.85,28.85 C144.775048,25.753236 146.022455,22.7710972 148.28,20.65 C150.550758,18.4674422 153.601532,17.2860325 156.75,17.37 C159.303699,17.2201153 161.838984,17.8854525 163.99,19.27 L166.77,15.93 L170.4,19.36 L167,21.83 C168.507137,23.9454045 169.260705,26.5054231 169.14,29.1 C169.221252,32.055807 168.144761,34.9264479 166.14,37.1 C164.116782,39.2721775 161.341831,40.5917096 158.38,40.79 L153.78,41.26 C153.023009,41.376274 152.283794,41.5879585 151.58,41.89 C150.66,42.25 150.2,42.7233333 150.2,43.31 C150.2,44.11 151.156667,44.51 153.07,44.51 C154.391028,44.4398044 155.704811,44.2693134 157,44 C158.319779,43.7473728 159.657079,43.5969265 161,43.55 C163.594287,43.3930697 166.158044,44.1778206 168.22,45.76 C169.978703,47.3015726 170.933285,49.5645593 170.81,51.9 C170.832272,54.7519305 169.360323,57.4075078 166.93,58.9 C164.003261,60.7738207 160.57255,61.7056618 157.1,61.57 C154.91687,61.5459161 152.750848,61.1815386 150.68,60.49 C148.743914,59.9225611 146.915651,59.0371544 145.27,57.87 L145.27,57.87 Z M194,49.28 L194,29.57 C194.134954,27.5709281 193.537795,25.5910616 192.32,24 C191.089263,22.6277835 189.300086,21.8914968 187.46,22 C186.024399,22.0251397 184.622023,22.4361811 183.4,23.19 C182.162834,23.8814004 181.096629,24.8416683 180.28,26 L180.28,49.28 L174.71,49.28 L174.71,5 L180.28,5 L180.28,21.36 C181.17905,20.0763313 182.423946,19.0741728 183.87,18.47 C185.473321,17.7102857 187.225797,17.3174303 189,17.32 C191.966846,17.1677507 194.84152,18.3750402 196.81,20.6 C198.696667,22.7866667 199.64,25.7866667 199.64,29.6 L199.64,49.28 L194,49.28 Z M206.82,22.3 L203.19,22.3 L203.19,17.91 L206.82,17.91 L206.82,11.34 L212.39,9.2 L212.39,17.9 L221,17.9 L221,22.3 L212.39,22.3 L212.39,37.89 C212.39,40.5566667 212.833333,42.4333333 213.72,43.52 C214.809312,44.7111193 216.392424,45.32513 218,45.18 C219.535421,45.1539932 221.045598,44.7849907 222.42,44.1 L223.24,48.99 C220.756388,49.5975404 218.206735,49.8931524 215.65,49.87 C213.253159,49.9052959 210.96004,48.8938406 209.37,47.1 C207.635511,45.1903695 206.716727,42.6780693 206.81,40.1 L206.82,22.3 Z M157.07,21.8 C155.266522,21.7438062 153.532085,22.4955177 152.34,23.85 C151.114411,25.2221405 150.459727,27.010894 150.51,28.85 C150.436464,30.8127594 151.063904,32.737618 152.28,34.28 C153.450293,35.7093054 155.22425,36.5055491 157.07,36.43 C158.859036,36.5153025 160.580612,35.7381762 161.7,34.34 C162.872489,32.7570257 163.462399,30.81774 163.37,28.85 C163.421469,27.0160625 162.778599,25.2303129 161.57,23.85 C160.456325,22.5224577 158.802537,21.7690653 157.07,21.8 L157.07,21.8 Z" id="Combined-Shape" fill="#666666"></path>
                <polygon id="Shape" fill="#999999" points="79.71 6.5 81.21 6.5 81.21 49.33 79.71 49.33"></polygon>
                <path d="M11.43,62.1 C5.85989535,61.8502692 1.3576248,57.4724874 0.95184898,51.9115723 C0.546073162,46.3506571 4.36514969,41.3656729 9.84,40.31 C11.2069048,40.1111775 12.4761775,41.0580952 12.675,42.425 C12.8738225,43.7919048 11.9269048,45.0611775 10.56,45.26 C7.37615228,45.6993783 5.10398585,48.5695523 5.40695752,51.7692629 C5.70992919,54.9689735 8.48042235,57.3616721 11.6901544,57.1956602 C14.8998864,57.0296482 17.4087491,54.3638938 17.38,51.15 C17.38,47.88 15.64,44.88 13.63,41.41 C11.1,37 8.23,32.07 8.23,25.3 C8.24043145,14.6753589 15.0922353,5.266226 25.2007949,1.99512045 C35.3093544,-1.27598511 46.3745211,2.33525922 52.6073985,10.9395806 C58.840276,19.543902 58.8226064,31.1834331 52.5636338,39.768791 C46.3046613,48.3541489 35.2285815,51.9317814 25.13,48.63 C24.270915,48.3596981 23.6236127,47.648218 23.4354858,46.7674806 C23.2473588,45.8867433 23.5474873,44.9728904 24.2211651,44.3751879 C24.8948429,43.7774853 25.8379347,43.5883241 26.69,43.88 C34.7424011,46.5197399 43.5786298,43.6712365 48.5732555,36.8255734 C53.5678813,29.9799102 53.5835803,20.6959099 48.6121347,13.8333944 C43.6406891,6.97087884 34.8141444,4.09250821 26.7528619,6.7050003 C18.6915794,9.3174924 13.2311898,16.8259579 13.23,25.3 C13.23,30.72 15.64,34.88 17.97,38.9 C20.14,42.65 22.39,46.53 22.39,51.15 C22.3625848,57.1900248 17.4700473,62.0780983 11.43,62.1 Z M37.1896457,17.8692778 C35.7571936,18.9961017 33.6824906,18.748341 32.5556667,17.315889 C31.4288429,15.8834369 31.6766035,13.8087339 33.1090556,12.6819101 C34.5415076,11.5550862 36.6162107,11.8028468 37.7430345,13.2352989 C38.8698584,14.6677509 38.6220977,16.742454 37.1896457,17.8692778 Z" id="Combined-Shape" fill="#00BCFF"></path>
            </g>
        </g>
    </g>
</svg>