<?xml version="1.0" encoding="UTF-8"?>
<svg width="200px" height="65px" viewBox="0 0 200 65" version="1.1" xmlns="http://www.w3.org/2000/svg" xmlns:xlink="http://www.w3.org/1999/xlink">
    <!-- Generator: Sketch 43.1 (39012) - http://www.bohemiancoding.com/sketch -->
    <title>logo-nav</title>
    <desc>Created with Sketch.</desc>
    <defs></defs>
    <g id="Page-1" stroke="none" stroke-width="1" fill="none" fill-rule="evenodd">
        <g id="首页" transform="translate(-203.000000, 0.000000)" fill-rule="nonzero">
            <g id="nav">
                <g id="Group-2" transform="translate(203.000000, 0.000000)">
                    <polygon id="Shape" opacity="0.2" points="200 65 0 65 0 0 200 0"></polygon>
                    <path d="M93.3359375,45.5541667 L93.3359375,16.49375 L97.3036458,16.49375 L97.3036458,41.9791667 L110.432292,41.9791667 L110.432292,45.5473958 L93.3359375,45.5541667 Z M113.75,45.5541667 L113.75,27.4828125 L110.838542,27.4828125 L110.838542,24.3140625 L117.521354,24.3140625 L117.521354,45.5541667 L113.75,45.5541667 Z M115.78125,16.2770833 C116.403989,16.2639524 117.004416,16.5090247 117.440104,16.9541667 C117.882104,17.3836031 118.127113,17.9765257 118.117187,18.5927083 C118.118993,19.2145849 117.872752,19.8115113 117.433017,20.2512463 C116.993282,20.6909812 116.396356,20.9372218 115.774479,20.9354167 C115.158297,20.9453426 114.565374,20.7003333 114.135937,20.2583333 C113.43375,19.5943462 113.216139,18.5649103 113.589545,17.6735551 C113.96295,16.7821999 114.849321,16.2152426 115.815104,16.25 L115.78125,16.2770833 Z M121.380729,51.3703125 L123.411979,48.3572917 C125.605729,49.8243056 127.636979,50.5578125 129.505729,50.5578125 C130.914344,50.6342433 132.317572,50.3302106 133.568229,49.6776042 C134.430146,49.2780116 134.998833,48.4328063 135.044271,47.4838542 C135.044271,45.7640625 133.800694,44.9041667 131.313542,44.9041667 C130.53901,44.9495752 129.769263,45.0559813 129.011458,45.2223958 C128.155818,45.4046151 127.285788,45.5111031 126.411458,45.540625 C123.396181,45.540625 121.888542,44.4121528 121.888542,42.1552083 C121.923834,41.3890895 122.317638,40.6842558 122.951563,40.2526042 C123.724787,39.6516955 124.622249,39.2307213 125.578646,39.0203125 C122.590451,37.6164931 121.096354,35.1835069 121.096354,31.7213542 C121.045605,29.6245869 121.890204,27.6054304 123.41875,26.1692708 C124.956242,24.6914973 127.021871,23.8915845 129.153646,23.9484375 C130.882713,23.846953 132.599312,24.2974418 134.055729,25.2348958 L135.938021,22.9734375 L138.395833,25.2958333 L136.09375,26.9682292 C137.114208,28.4005343 137.624436,30.1338802 137.542708,31.890625 C137.597723,33.8919527 136.868849,35.8356158 135.511458,37.3072917 C134.141571,38.7780368 132.262698,39.67147 130.257292,39.8057292 L127.142708,40.1239583 C126.630163,40.2026855 126.129652,40.3460136 125.653125,40.5505208 C125.030208,40.7942708 124.71875,41.1147569 124.71875,41.5119792 C124.71875,42.0536458 125.366493,42.3244792 126.661979,42.3244792 C127.556425,42.2769509 128.445966,42.1615143 129.322917,41.9791667 C130.216517,41.808117 131.121981,41.7062523 132.03125,41.6744792 C133.787799,41.5682243 135.523676,42.0995661 136.919792,43.1708333 C138.11058,44.2146064 138.756912,45.746837 138.673438,47.328125 C138.688517,49.2591196 137.691885,51.0571667 136.046354,52.0677083 C134.064708,53.3364411 131.741831,53.9673752 129.390625,53.8755208 C127.912464,53.859214 126.445887,53.6125001 125.04375,53.1442708 C123.732859,52.7600674 122.494972,52.1605733 121.380729,51.3703125 L121.380729,51.3703125 Z M129.370312,26.9479167 C128.149208,26.9098688 126.97485,27.4188401 126.167708,28.3359375 C125.337882,29.264991 124.894607,30.4761261 124.928646,31.7213542 C124.878856,33.0503059 125.303685,34.3535955 126.127083,35.3979167 C126.919469,36.3656756 128.120586,36.9047989 129.370312,36.8536458 C130.581639,36.9114028 131.74729,36.3852235 132.505208,35.4385417 C133.299081,34.3667362 133.6985,33.0536781 133.635937,31.7213542 C133.670786,30.4796256 133.23551,29.2705244 132.417187,28.3359375 C131.663137,27.4370808 130.543384,26.9269713 129.370312,26.9479167 L129.370312,26.9479167 Z M154.375,45.5541667 L154.375,32.2088542 C154.466375,30.8553159 154.062048,29.5147813 153.2375,28.4375 C152.404189,27.5083951 151.192767,27.0098676 149.946875,27.0833333 C148.974854,27.100355 148.025328,27.3786643 147.197917,27.8890625 C146.360252,28.3571982 145.638342,29.0073796 145.085417,29.7916667 L145.085417,45.5541667 L141.314063,45.5541667 L141.314063,15.5729167 L145.085417,15.5729167 L145.085417,26.65 C145.694149,25.7808493 146.537047,25.1023045 147.516146,24.6932292 C148.601728,24.1788393 149.7883,23.9128435 150.989583,23.9145833 C152.998386,23.8114979 154.944779,24.6289335 156.277604,26.1354167 C157.555035,27.6159722 158.19375,29.6472222 158.19375,32.2291667 L158.19375,45.5541667 L154.375,45.5541667 Z M163.055208,27.2864583 L160.597396,27.2864583 L160.597396,24.3140625 L163.055208,24.3140625 L163.055208,19.865625 L166.826563,18.4166667 L166.826563,24.3072917 L172.65625,24.3072917 L172.65625,27.2864583 L166.826563,27.2864583 L166.826563,37.8421875 C166.826563,39.6477431 167.126736,40.9184028 167.727083,41.6541667 C168.464638,42.4606537 169.536537,42.8763901 170.625,42.778125 C171.664608,42.7605162 172.687123,42.5106708 173.617708,42.046875 L174.172917,45.3578125 C172.491305,45.769168 170.764977,45.9693219 169.033854,45.9536458 C167.410993,45.9775441 165.858361,45.2927046 164.781771,44.078125 C163.607377,42.785146 162.985284,41.0841094 163.048438,39.3385417 L163.055208,27.2864583 Z" id="Combined-Shape" fill="#666666"></path>
                    <polygon id="Shape" fill="#999999" points="76.9911458 16.5885417 78.0067708 16.5885417 78.0067708 45.5880208 76.9911458 45.5880208"></polygon>
                    <path d="M30.7598958,54.234375 C26.9884708,54.0652864 23.9400585,51.1011634 23.6653144,47.3359604 C23.3905704,43.5707574 25.9764034,40.1955077 29.6833333,39.4807292 C30.6088418,39.3461098 31.4682452,39.987252 31.6028646,40.9127604 C31.737484,41.8382688 31.0963418,42.6976723 30.1708333,42.8322917 C28.0151031,43.1297874 26.4766571,45.0731344 26.6817942,47.2396051 C26.8869312,49.4060758 28.762786,51.0261322 30.936042,50.9137282 C33.1092981,50.8013243 34.8080072,48.9963864 34.7885417,46.8203125 C34.7885417,44.60625 33.6104167,42.575 32.2494792,40.2255208 C30.5364583,37.2395833 28.5932292,33.9015625 28.5932292,29.3177083 C28.6002921,22.1239409 33.2395343,15.7531739 40.0838715,13.5383628 C46.9282087,11.3235518 54.4202486,13.7686651 58.6404261,19.5945077 C62.8606035,25.4203503 62.8486397,33.3012828 58.6107937,39.1142856 C54.3729477,44.9272883 46.8735187,47.3496436 40.0359375,45.1140625 C39.4542654,44.9310456 39.0159878,44.4493143 38.8886102,43.8529817 C38.7612325,43.2566491 38.9644446,42.6378946 39.4205805,42.2332001 C39.8767165,41.8285057 40.5152683,41.7004278 41.0921875,41.8979167 C46.5443341,43.6852406 52.5271973,41.7565664 55.9089751,37.121482 C59.2907529,32.4863976 59.3013825,26.2003556 55.9352995,21.5538608 C52.5692166,16.9073659 46.5929103,14.9584691 41.1347503,16.727344 C35.6765902,18.4962188 31.9794515,23.5800757 31.9786458,29.3177083 C31.9786458,32.9875 33.6104167,35.8041667 35.1880208,38.5260417 C36.6572917,41.0651042 38.1807292,43.6921875 38.1807292,46.8203125 C38.1621668,50.9099126 34.8495112,54.2195457 30.7598958,54.234375 Z M48.2013226,24.2864902 C47.2314332,25.0494438 45.8266863,24.8816892 45.0637327,23.9117998 C44.3007791,22.9419104 44.4685336,21.5371636 45.438423,20.7742099 C46.4083125,20.0112563 47.8130593,20.1790109 48.576013,21.1489003 C49.3389666,22.1187897 49.171212,23.5235365 48.2013226,24.2864902 Z" id="Combined-Shape" fill="#00BCFF"></path>
                </g>
            </g>
        </g>
    </g>
</svg>