<?xml version="1.0" encoding="UTF-8"?>
<svg width="52px" height="52px" viewBox="0 0 52 52" version="1.1" xmlns="http://www.w3.org/2000/svg" xmlns:xlink="http://www.w3.org/1999/xlink">
    <!-- Generator: Sketch 46.2 (44496) - http://www.bohemiancoding.com/sketch -->
    <title>logo-小</title>
    <desc>Created with Sketch.</desc>
    <defs></defs>
    <g id="Symbols" stroke="none" stroke-width="1" fill="none" fill-rule="evenodd">
        <g id="外框-小" transform="translate(-10.000000, -10.000000)" fill-rule="nonzero">
            <g id="logo" transform="translate(10.000000, 10.000000)">
                <polygon id="Shape" opacity="0.2" points="52 52 0 52 0 0 52 0"></polygon>
                <g transform="translate(9.378378, 9.729730)" id="Combined-Shape" fill="#00BCFF">
                    <path d="M6.17837838,33.5675676 C3.167511,33.4325779 0.733851242,31.0662094 0.514512962,28.0603093 C0.295174682,25.0544093 2.35954037,22.3598232 5.31891892,21.7891892 C6.05778635,21.6817176 6.74387972,22.193565 6.85135135,22.9324324 C6.95882298,23.6712999 6.44697554,24.3573932 5.70810811,24.4648649 C3.98710934,24.7023666 2.75891127,26.2538121 2.92267974,27.9833853 C3.08644821,29.7129586 4.58401208,31.0063092 6.31900237,30.9165731 C8.05399265,30.8268369 9.41013466,29.3858885 9.39459459,27.6486486 C9.39459459,25.8810811 8.45405405,24.2594595 7.36756757,22.3837838 C6,20 4.44864865,17.3351351 4.44864865,13.6756757 C4.45428727,7.93262642 8.15796505,2.84660865 13.6220513,1.07844348 C19.0861375,-0.68972168 25.0673087,1.26230228 28.4364316,5.9132868 C31.8055546,10.5642713 31.7960035,16.8559098 28.412775,21.4966438 C25.0295466,26.1373778 19.0424765,28.0712332 13.5837838,26.2864865 C13.1194135,26.1403773 12.7695204,25.7557935 12.6678302,25.2797193 C12.5661399,24.803645 12.7283715,24.3096705 13.0925217,23.986588 C13.4566718,23.6635056 13.9664512,23.5612563 14.427027,23.7189189 C18.7796763,25.1458053 23.5560161,23.6060738 26.2558138,19.9057153 C28.9556115,16.2053569 28.9640974,11.1869783 26.2768296,7.47751046 C23.5895617,3.76804262 18.8184564,2.2121666 14.4610064,3.62432449 C10.1035565,5.03648238 7.15199451,9.0951124 7.15135135,13.6756757 C7.15135135,16.6054054 8.45405405,18.8540541 9.71351351,21.027027 C10.8864865,23.0540541 12.1027027,25.1513514 12.1027027,27.6486486 C12.0878837,30.9135269 9.44326882,33.5557288 6.17837838,33.5675676 Z M20.1025112,9.65906909 C19.3282128,10.2681631 18.2067517,10.1342384 17.5976577,9.35993999 C16.9885637,8.58564159 17.1224884,7.46418048 17.8967868,6.85508651 C18.6710852,6.24599255 19.7925463,6.3799172 20.4016403,7.15421561 C21.0107342,7.92851402 20.8768096,9.04997512 20.1025112,9.65906909 Z"></path>
                </g>
            </g>
        </g>
    </g>
</svg>