<?xml version="1.0" standalone="no"?><!DOCTYPE svg PUBLIC "-//W3C//DTD SVG 1.1//EN" "http://www.w3.org/Graphics/SVG/1.1/DTD/svg11.dtd"><svg t="1505359144379" class="icon" style="" viewBox="0 0 1024 1024" version="1.1" xmlns="http://www.w3.org/2000/svg" p-id="13198" xmlns:xlink="http://www.w3.org/1999/xlink" width="25" height="25"><defs><style type="text/css"></style></defs><path d="M661.829 702.246a22.18 22.18 0 0 0 0-31.499l-31.498-31.499a22.18 22.18 0 0 0-31.499 0l-76.998 76.998c-5.25 5.25-15.75 5.25-21 0l-76.998-76.998a22.18 22.18 0 0 0-31.499 0l-31.499 31.499a22.18 22.18 0 0 0 0 31.499l76.998 76.998c5.25 5.25 5.25 15.749 0 20.999l-76.998 76.999a22.18 22.18 0 0 0 0 31.499l31.499 31.499a22.18 22.18 0 0 0 31.499 0l76.998-76.998c5.25-5.25 15.75-5.25 21 0l76.998 76.998a22.18 22.18 0 0 0 31.499 0l31.498-31.499a22.18 22.18 0 0 0 0-31.499l-76.997-76.999c-5.251-5.25-5.251-15.749 0-20.999l76.997-76.998z m227.495-428.739C793.077 166.759 656.58 107.261 511.333 107.261s-281.743 59.498-377.99 166.246c-7 6.999-5.25 19.249 1.75 24.499l52.498 45.499c7 7 17.5 5.25 24.5-1.75 76.998-82.248 185.495-129.497 299.242-129.497s222.245 47.25 299.243 129.497c7 6.999 17.5 6.999 24.5 1.75l52.498-45.499c7-7 8.75-17.5 1.75-24.499z m-377.991 78.748c-73.498 0-143.496 31.499-192.495 87.498-6.999 7-5.25 19.249 1.75 26.25l55.999 41.999c6.999 5.25 17.5 5.25 22.749-1.75 29.749-31.499 69.998-48.999 111.997-48.999 42 0 82.248 17.5 110.248 47.248 5.25 7 15.749 7 22.75 1.751l55.998-41.999c8.75-7 8.75-17.5 1.75-26.25-47.249-54.249-117.247-85.748-190.746-85.748z" p-id="13199" fill="#d81e06"></path></svg>