<?xml version="1.0" standalone="no"?><!DOCTYPE svg PUBLIC "-//W3C//DTD SVG 1.1//EN" "http://www.w3.org/Graphics/SVG/1.1/DTD/svg11.dtd"><svg t="1505359106381" class="icon" style="" viewBox="0 0 1024 1024" version="1.1" xmlns="http://www.w3.org/2000/svg" p-id="12452" xmlns:xlink="http://www.w3.org/1999/xlink" width="25" height="25"><defs><style type="text/css"></style></defs><path d="M509.417687 738.78512c-62.521962 0-113.40177 50.380434-113.40177 112.334461s50.880831 112.334461 113.40177 112.334461c62.526055 0 113.40484-50.380434 113.404839-112.334461s-50.878784-112.334461-113.404839-112.334461z m0 168.500668c-31.275307 0-56.700373-25.206078-56.700373-56.166207s25.425066-56.166207 56.700373-56.166207c31.279401 0 56.704466 25.206078 56.704466 56.166207s-25.424042 56.166207-56.704466 56.166207z m-232.392838-303.128878l40.077787 39.708373c98.382705-97.379864 258.453377-97.43103 356.837105 0l40.108486-39.708373c-120.428813-119.342062-316.527027-119.342062-437.023378 0z m-99.521644-181.061753l40.110533 39.723724c160.838152-159.350265 422.704255-159.28375 583.610968 0l40.109509-39.723724c-183.083805-181.212178-480.846466-181.212178-663.83101 0zM64.100412 247.453858l40.10951 39.706327c223.36216-221.204008 586.958202-221.204008 810.4186 0l40.10951-39.706327c-245.674329-243.149832-645.13009-243.100714-890.63762 0z" fill="#1afa29" p-id="12453"></path></svg>