<?xml version="1.0" encoding="UTF-8"?>
<svg width="22px" height="22px" viewBox="0 0 22 22" version="1.1" xmlns="http://www.w3.org/2000/svg" xmlns:xlink="http://www.w3.org/1999/xlink">
    <!-- Generator: Sketch 46.2 (44496) - http://www.bohemiancoding.com/sketch -->
    <title>运营-经过</title>
    <desc>Created with Sketch.</desc>
    <defs></defs>
    <g id="Symbols" stroke="none" stroke-width="1" fill="none" fill-rule="evenodd">
        <g id="运营-经过">
            <rect id="Rectangle-22-Copy" x="0" y="0" width="22" height="22"></rect>
            <g id="keynote-presentation.1" transform="translate(0.647059, 0.647059)" fill-rule="nonzero" fill="#0AA9F1">
                <path d="M18.1176471,13.5882353 C18.1176471,14.3834706 17.6038824,14.8823529 16.8235294,14.8823529 L3.88235294,14.8823529 C3.102,14.8823529 2.58823529,14.3834706 2.58823529,13.5882353 C2.58823529,13.5882353 2.57852941,2.10747059 2.57852941,1.28764706 L18.1273529,1.28764706 C18.1273529,2.59276471 18.1176471,13.5882353 18.1176471,13.5882353 L18.1176471,13.5882353 Z M0,0 L0,1.29411765 L1.29411765,1.29411765 L1.29411765,13.5882353 C1.29411765,15.1217647 2.35788235,16.1764706 3.88235294,16.1764706 L7.76470588,16.1764706 L5.17647059,20.7058824 L7.12541176,20.6974706 L9.70588235,16.1764706 L11,16.1764706 L13.5804706,20.6974706 L15.5294118,20.7058824 L12.9411765,16.1764706 L16.8235294,16.1764706 C18.348,16.1764706 19.4117647,15.1217647 19.4117647,13.5882353 L19.4117647,1.29411765 L20.7058824,1.29411765 L20.7058824,0 L0,0 L0,0 Z M6.47058824,12.9411765 C6.82841176,12.9411765 7.11764706,12.6519412 7.11764706,12.2941176 L7.11764706,9.70588235 C7.11764706,9.34870588 6.82841176,9.05882353 6.47058824,9.05882353 C6.11276471,9.05882353 5.82352941,9.34870588 5.82352941,9.70588235 L5.82352941,12.2941176 C5.82352941,12.6519412 6.11276471,12.9411765 6.47058824,12.9411765 L6.47058824,12.9411765 Z M14.2352941,12.9411765 C14.5931176,12.9411765 14.8823529,12.6519412 14.8823529,12.2941176 L14.8823529,6.47058824 C14.8823529,6.11341176 14.5931176,5.82352941 14.2352941,5.82352941 C13.8774706,5.82352941 13.5882353,6.11341176 13.5882353,6.47058824 L13.5882353,12.2941176 C13.5882353,12.6519412 13.8774706,12.9411765 14.2352941,12.9411765 L14.2352941,12.9411765 Z M10.3529412,12.9411765 C10.7107647,12.9411765 11,12.6519412 11,12.2941176 L11,4.52941176 C11,4.17223529 10.7107647,3.88235294 10.3529412,3.88235294 C9.99511765,3.88235294 9.70588235,4.17223529 9.70588235,4.52941176 L9.70588235,12.2941176 C9.70588235,12.6519412 9.99511765,12.9411765 10.3529412,12.9411765 L10.3529412,12.9411765 Z" id="keynote-presentation"></path>
            </g>
        </g>
    </g>
</svg>