<?xml version="1.0" encoding="UTF-8"?>
<svg width="20px" height="20px" viewBox="0 0 20 20" version="1.1" xmlns="http://www.w3.org/2000/svg" xmlns:xlink="http://www.w3.org/1999/xlink">
    <!-- Generator: Sketch 46.2 (44496) - http://www.bohemiancoding.com/sketch -->
    <title>Rectangle 26</title>
    <desc>Created with Sketch.</desc>
    <defs></defs>
    <g id="page1" stroke="none" stroke-width="1" fill="none" fill-rule="evenodd">
        <g id="版本集成" transform="translate(-504.000000, -79.000000)">
            <g id="菜单" transform="translate(284.000000, 73.000000)">
                <g id="按钮-copy-9" transform="translate(204.000000, 0.000000)">
                    <g id="Group-16" transform="translate(16.000000, 6.000000)">
                        <rect id="Rectangle-26" x="0" y="0" width="20" height="20"></rect>
                        <path d="M19.2307692,3.84615385 L19.2307692,8.46153846 C19.2307692,8.88634615 18.8863462,9.23076923 18.4615385,9.23076923 L13.8461538,9.23076923 C13.4213462,9.23076923 13.0769231,8.88634615 13.0769231,8.46153846 C13.0769231,8.03673077 13.4213462,7.69230769 13.8461538,7.69230769 L16.4401923,7.69230769 C15.405,6.68326923 14.5875,5.88461538 14.3567308,5.65384615 C14.3548077,5.65192308 14.3530769,5.65019231 14.3515385,5.64865385 C13.7636538,5.06076923 13.0790385,4.60596154 12.3161538,4.29673077 C11.5788462,3.99769231 10.7996154,3.84615385 10,3.84615385 C9.20038462,3.84615385 8.42115385,3.99769231 7.68384615,4.29673077 C6.92096154,4.60596154 6.23634615,5.06096154 5.64846154,5.64865385 C5.59692308,5.70019231 5.54615385,5.7525 5.49653846,5.80576923 C5.00423077,6.33326923 4.61403846,6.93326923 4.33423077,7.59346154 C4.29134615,7.71403846 4.23788462,7.83076923 4.19519231,7.95173077 C4.0525,8.35 3.61442308,8.55846154 3.21519231,8.41769231 C2.81673077,8.27711538 2.60673077,7.84173077 2.74346154,7.44307692 C2.80173077,7.27480769 2.86730769,7.10865385 2.93826923,6.94519231 C3.09173077,6.59 3.27230769,6.24634615 3.47769231,5.91903846 C3.73653846,5.50596154 4.03634615,5.11596154 4.37115385,4.75692308 C4.43307692,4.69038462 4.49615385,4.62480769 4.56057692,4.56057692 C5.29461538,3.82653846 6.15096154,3.25807692 7.10557692,2.87096154 C7.56442308,2.68480769 8.04403846,2.54269231 8.53115385,2.44846154 C9.01384615,2.355 9.50788462,2.30769231 10,2.30769231 C10.4921154,2.30769231 10.9861538,2.355 11.4686538,2.44846154 C11.9557692,2.54269231 12.4353846,2.68480769 12.8942308,2.87096154 C13.8490385,3.25807692 14.7051923,3.82653846 15.4392308,4.56057692 L15.4505769,4.57192308 C15.6971154,4.81769231 16.5861538,5.68615385 17.6923077,6.76423077 L17.6923077,3.84615385 C17.6923077,3.42134615 18.0367308,3.07692308 18.4615385,3.07692308 C18.8863462,3.07692308 19.2307692,3.42134615 19.2307692,3.84615385 Z M1.53846154,16.9230769 C1.96326923,16.9230769 2.30769231,16.5786538 2.30769231,16.1538462 L2.30769231,13.2355769 C3.41384615,14.3136538 4.30288462,15.1821154 4.54942308,15.4278846 L4.56076923,15.4392308 C5.29480769,16.1732692 6.15115385,16.7417308 7.10576923,17.1288462 C7.56461538,17.315 8.04423077,17.4571154 8.53134615,17.5513462 C9.01384615,17.645 9.50788462,17.6923077 10,17.6923077 C10.9894231,17.6923077 11.9773077,17.5007692 12.8942308,17.1288462 C13.8490385,16.7417308 14.7051923,16.1732692 15.4392308,15.4392308 C15.5036538,15.375 15.5667308,15.3094231 15.6286538,15.2428846 C15.9634615,14.8838462 16.2634615,14.4938462 16.5221154,14.0807692 C16.7273077,13.7534615 16.9080769,13.4098077 17.0615385,13.0546154 C17.1325,12.8911538 17.1980769,12.725 17.2563462,12.5567308 C17.3930769,12.1580769 17.1830769,11.7226923 16.7846154,11.5821154 C16.3853846,11.4413462 15.9473077,11.6498077 15.8046154,12.0480769 C15.7619231,12.1690385 15.7084615,12.2857692 15.6655769,12.4063462 C15.0355769,13.8926923 13.8115385,15.0965385 12.3159615,15.7032692 C11.5788462,16.0023077 10.7996154,16.1538462 10,16.1538462 C9.20038462,16.1538462 8.42115385,16.0023077 7.68384615,15.7032692 C6.92096154,15.3940385 6.23634615,14.9390385 5.64846154,14.3513462 C5.64673077,14.3496154 5.645,14.3478846 5.64326923,14.3461538 C5.4125,14.1155769 4.595,13.3167308 3.55980769,12.3076923 L6.15384615,12.3076923 C6.57865385,12.3076923 6.92307692,11.9632692 6.92307692,11.5384615 C6.92307692,11.1136538 6.57865385,10.7692308 6.15384615,10.7692308 L1.53846154,10.7692308 C1.11365385,10.7692308 0.769230769,11.1136538 0.769230769,11.5384615 L0.769230769,16.1538462 C0.769230769,16.5786538 1.11365385,16.9230769 1.53846154,16.9230769 Z" id="Shape" fill="#FFFFFF" fill-rule="nonzero"></path>
                    </g>
                </g>
            </g>
        </g>
    </g>
</svg>