<?xml version="1.0" encoding="UTF-8"?>
<svg width="22px" height="22px" viewBox="0 0 22 22" version="1.1" xmlns="http://www.w3.org/2000/svg" xmlns:xlink="http://www.w3.org/1999/xlink">
    <!-- Generator: Sketch 46.2 (44496) - http://www.bohemiancoding.com/sketch -->
    <title>系统-默认</title>
    <desc>Created with Sketch.</desc>
    <defs></defs>
    <g id="Symbols" stroke="none" stroke-width="1" fill="none" fill-rule="evenodd">
        <g id="系统-默认">
            <rect id="Rectangle-22" x="0" y="0" width="22" height="22"></rect>
            <g id="browser.1" transform="translate(0.647059, 0.647059)" fill-opacity="0.6" fill-rule="nonzero" fill="#0AA9F1">
                <path d="M5.82352941,2.58823529 C5.46635294,2.58823529 5.17647059,2.87811765 5.17647059,3.23529412 C5.17647059,3.59311765 5.46635294,3.88235294 5.82352941,3.88235294 C6.18070588,3.88235294 6.47058824,3.59311765 6.47058824,3.23529412 C6.47058824,2.87811765 6.18070588,2.58823529 5.82352941,2.58823529 L5.82352941,2.58823529 Z M8.41176471,2.58823529 C8.05458824,2.58823529 7.76470588,2.87811765 7.76470588,3.23529412 C7.76470588,3.59311765 8.05458824,3.88235294 8.41176471,3.88235294 C8.76894118,3.88235294 9.05882353,3.59311765 9.05882353,3.23529412 C9.05882353,2.87811765 8.76894118,2.58823529 8.41176471,2.58823529 L8.41176471,2.58823529 Z M19.4117647,5.17647059 L1.29411765,5.17647059 L1.29411765,2.58823529 C1.29411765,1.87388235 1.87388235,1.29411765 2.58823529,1.29411765 L18.1176471,1.29411765 C18.832,1.29411765 19.4117647,1.87388235 19.4117647,2.58823529 L19.4117647,5.17647059 L19.4117647,5.17647059 Z M19.4117647,18.1176471 C19.4117647,18.832 18.832,19.4117647 18.1176471,19.4117647 L2.58823529,19.4117647 C1.87388235,19.4117647 1.29411765,18.832 1.29411765,18.1176471 L1.29411765,6.47058824 L19.4117647,6.47058824 L19.4117647,18.1176471 L19.4117647,18.1176471 Z M18.1176471,0 L2.58823529,0 C1.15888235,0 0,1.15888235 0,2.58823529 L0,18.1176471 C0,19.547 1.15888235,20.7058824 2.58823529,20.7058824 L18.1176471,20.7058824 C19.547,20.7058824 20.7058824,19.547 20.7058824,18.1176471 L20.7058824,2.58823529 C20.7058824,1.15888235 19.547,0 18.1176471,0 L18.1176471,0 Z M3.23529412,2.58823529 C2.87811765,2.58823529 2.58823529,2.87811765 2.58823529,3.23529412 C2.58823529,3.59311765 2.87811765,3.88235294 3.23529412,3.88235294 C3.59247059,3.88235294 3.88235294,3.59311765 3.88235294,3.23529412 C3.88235294,2.87811765 3.59247059,2.58823529 3.23529412,2.58823529 L3.23529412,2.58823529 Z" id="browser"></path>
            </g>
        </g>
    </g>
</svg>