<?xml version="1.0" encoding="UTF-8"?>
<svg width="20px" height="20px" viewBox="0 0 20 20" version="1.1" xmlns="http://www.w3.org/2000/svg" xmlns:xlink="http://www.w3.org/1999/xlink">
    <!-- Generator: Sketch 46.2 (44496) - http://www.bohemiancoding.com/sketch -->
    <title>提示</title>
    <desc>Created with Sketch.</desc>
    <defs></defs>
    <g id="page1" stroke="none" stroke-width="1" fill="none" fill-rule="evenodd">
        <g id="版本集成" transform="translate(-408.000000, -79.000000)">
            <g id="Group" transform="translate(408.000000, 79.000000)">
                <rect id="Rectangle" x="0" y="0" width="20" height="20"></rect>
                <path d="M9.99996782,2 C5.58167661,2 2,5.58174097 2,10.0000322 C2,14.418352 5.58167661,18.0001287 9.99996782,18.0001287 C14.4183234,18.0001287 18,14.4183556 18,10.0000644 C18,5.58177315 14.418352,2 9.99996782,2 L9.99996782,2 Z M10.776353,14.6163814 C10.776353,14.8372904 10.5973132,15.0164089 10.3763577,15.0164089 L9.17635018,15.0164089 C8.95549122,15.0164089 8.77638343,14.8373047 8.77638343,14.6163814 L8.77638343,13.4164096 C8.77638343,13.1954362 8.95549122,13.0163463 9.17635018,13.0163463 L10.3763577,13.0163463 C10.5972953,13.0163463 10.776353,13.1954183 10.776353,13.4164096 L10.776353,14.6163814 L10.776353,14.6163814 Z M12.7591745,9.11037853 C12.5983948,9.33963278 12.2334501,9.63174441 11.776572,9.98790407 L11.2702555,10.3372989 C11.0243537,10.5280449 10.8062586,10.750116 10.7256095,11.004363 C10.6980495,11.0909868 10.6773974,11.2333598 10.6634958,11.3871173 C10.6564878,11.4644876 10.5872696,11.6223283 10.4254887,11.6223283 L9.12331113,11.6223283 C8.91165552,11.6223283 8.87384098,11.4565429 8.87737715,11.3754433 C8.90080386,10.8439372 8.94951655,10.3720778 9.16606345,10.1180382 C9.60450263,9.60396988 10.6021222,8.96411176 10.6021222,8.96411176 C10.7540061,8.84949179 10.8769749,8.72489615 10.9699738,8.58910919 C11.139038,8.35599697 11.2792943,8.09998722 11.2792943,7.82014672 C11.2792943,7.49850499 11.1852621,7.20533144 10.9965791,6.93995743 C10.8085433,6.67563463 10.4641042,6.54320507 9.96500653,6.54320507 C9.4736892,6.54320507 9.12540638,6.70627671 8.92011159,7.03227698 C8.76845296,7.27314089 8.67296552,7.49459696 8.63342758,7.73555742 C8.61936512,7.82084037 8.56467776,8.00046303 8.38239135,8.00046303 L7.11236115,8.00046303 C6.84193496,8.00046303 6.78238849,7.82521679 6.79020455,7.7407419 C6.88809473,6.67608514 7.30414052,5.94866647 8.03977928,5.48158391 C8.53999247,5.15999224 9.15540844,4.99861539 9.88540863,4.99861539 C10.8446309,4.99861539 11.640878,5.22727252 12.275684,5.68524827 C12.90936,6.14259473 13.2271081,6.82028527 13.2271081,7.71884908 C13.2271724,8.26913007 13.0340343,8.73316272 12.7592031,9.11037853 L12.7591745,9.11037853 L12.7591745,9.11037853 Z" id="Shape-Copy-2" fill="#F1AE40"></path>
            </g>
        </g>
    </g>
</svg>