<?xml version="1.0" standalone="no"?><!DOCTYPE svg PUBLIC "-//W3C//DTD SVG 1.1//EN" "http://www.w3.org/Graphics/SVG/1.1/DTD/svg11.dtd"><svg t="1515508534509" class="icon" style="" viewBox="0 0 1024 1024" version="1.1" xmlns="http://www.w3.org/2000/svg" p-id="6842" xmlns:xlink="http://www.w3.org/1999/xlink" width="32" height="32"><defs><style type="text/css"></style></defs><path d="M807.822 301.511l-227.556-227.556c-22.756-22.756-62.578-22.756-85.334 0l-227.556 227.556c-22.756 22.756-22.756 62.578 0 85.334s62.578 22.756 85.334 0l125.156-125.156 5.689 648.533c0 51.2 22.756 56.89 56.889 56.889 34.133 0 56.89 0 56.889-56.889l5.689-642.844 125.156 125.156c11.378 11.378 28.444 17.067 39.822 17.067 17.067 0 28.444-5.689 39.822-17.067 22.756-28.444 22.756-68.267 0-91.022v0z" p-id="6843" fill="#85c0e9"></path></svg>