<?xml version="1.0" encoding="UTF-8"?>
<svg width="16px" height="16px" viewBox="0 0 16 16" version="1.1" xmlns="http://www.w3.org/2000/svg" xmlns:xlink="http://www.w3.org/1999/xlink">
    <!-- Generator: Sketch 46.2 (44496) - http://www.bohemiancoding.com/sketch -->
    <title>个人-下拉列表-OpenAPI接入-鼠标经过</title>
    <desc>Created with Sketch.</desc>
    <defs></defs>
    <g id="page1" stroke="none" stroke-width="1" fill="none" fill-rule="evenodd">
        <g id="Group-10">
            <rect id="Rectangle-10" x="0" y="0" width="16" height="16"></rect>
            <g id="shuffle" transform="translate(1.500000, 1.000000)" fill-rule="nonzero" fill="#0AA9F1">
                <path d="M7.16770833,4.83335417 C6.69739583,5.42922917 6.41666667,6.181875 6.41666667,7 C6.41666667,7.8203125 6.2050625,8.59104167 5.83333333,9.261 C5.628875,9.62952083 5.37585417,9.96770833 5.082875,10.2665208 C4.23602083,11.1304375 3.0555,11.6666667 1.75,11.6666667 L0.583333333,11.6666667 C0.2611875,11.6666667 0,11.4054792 0,11.0833333 C0,10.7611875 0.2611875,10.5 0.583333333,10.5 L1.75,10.5 C2.86489583,10.5 3.85802083,9.97879167 4.49895833,9.16664583 C4.96927083,8.57077083 5.25,7.818125 5.25,7 C5.25,6.1796875 5.46160417,5.40895833 5.83333333,4.739 C6.03779167,4.37047917 6.2908125,4.03229167 6.58379167,3.73347917 C7.43064583,2.8695625 8.61116667,2.33333333 9.91666667,2.33333333 L10.8416875,2.33333333 L9.50425,0.99575 C9.27645833,0.767958333 9.27645833,0.3985625 9.50425,0.170916667 C9.73204167,-0.056875 10.1014375,-0.056875 10.3290833,0.170916667 L12.6624167,2.50425 C12.8902083,2.73204167 12.8902083,3.1014375 12.6624167,3.32908333 L10.3290833,5.66241667 C10.2151875,5.7763125 10.0658542,5.83333333 9.91666667,5.83333333 C9.76747917,5.83333333 9.61814583,5.7763125 9.50425,5.66241667 C9.27645833,5.434625 9.27645833,5.06522917 9.50425,4.83758333 L10.8416875,3.5 L9.91666667,3.5 C8.80177083,3.5 7.80864583,4.02120833 7.16770833,4.83335417 Z M0.583333333,3.5 L1.75,3.5 C2.86489583,3.5 3.85802083,4.02120833 4.49895833,4.83335417 C4.65470833,4.44441667 4.85114583,4.07604167 5.08302083,3.733625 C4.23602083,2.8695625 3.0555,2.33333333 1.75,2.33333333 L0.583333333,2.33333333 C0.2611875,2.33333333 0,2.59452083 0,2.91666667 C0,3.2388125 0.2611875,3.5 0.583333333,3.5 Z M10.3290833,8.33758333 C10.1012917,8.10979167 9.73189583,8.10979167 9.50425,8.33758333 C9.27645833,8.565375 9.27645833,8.93477083 9.50425,9.16241667 L10.8416875,10.5 L9.91666667,10.5 C8.80177083,10.5 7.80864583,9.97879167 7.16770833,9.16664583 C7.01195833,9.55558333 6.81552083,9.92395833 6.58364583,10.266375 C7.43064583,11.1304375 8.61116667,11.6666667 9.91666667,11.6666667 L10.8416875,11.6666667 L9.50425,13.00425 C9.27645833,13.2320417 9.27645833,13.6014375 9.50425,13.8290833 C9.61814583,13.9429792 9.76747917,14 9.91666667,14 C10.0658542,14 10.2151875,13.9429792 10.3290833,13.8290833 L12.6624167,11.49575 C12.8902083,11.2679583 12.8902083,10.8985625 12.6624167,10.6709167 L10.3290833,8.33758333 Z" id="Shape"></path>
            </g>
        </g>
    </g>
</svg>