<?xml version="1.0" encoding="UTF-8"?>
<svg width="16px" height="16px" viewBox="0 0 16 16" version="1.1" xmlns="http://www.w3.org/2000/svg" xmlns:xlink="http://www.w3.org/1999/xlink">
    <!-- Generator: Sketch 46.2 (44496) - http://www.bohemiancoding.com/sketch -->
    <title>个人-下拉列表-我的消息-鼠标经过</title>
    <desc>Created with Sketch.</desc>
    <defs></defs>
    <g id="page1" stroke="none" stroke-width="1" fill="none" fill-rule="evenodd">
        <g id="01-H5列表-空" transform="translate(-852.000000, -143.000000)">
            <g id="Group" transform="translate(832.000000, 35.000000)">
                <g id="icon-消息" transform="translate(20.000000, 108.000000)">
                    <rect id="Rectangle-10-Copy-5" x="0" y="0" width="16" height="16"></rect>
                    <path d="M8.00514964,14.6666667 C8.74152931,14.6666667 9.33848298,14.069713 9.33848298,13.3333333 L6.67181631,13.3333333 C6.67181631,14.069713 7.26876998,14.6666667 8.00514964,14.6666667 L8.00514964,14.6666667 Z M8.00514964,1.33333333 C10.298483,1.33333333 12.5918163,3.68666667 12.6718163,5.8 L12.6718163,8.22666667 C12.6718163,8.22666667 14.0051496,9 14.0051496,10 C14.0525148,10.543576 13.8570672,11.0802721 13.4712445,11.4660948 C13.0854218,11.8519175 12.5487256,12.0473652 12.0051496,12 L4.00514964,12 C3.4633629,12.040303 2.93089979,11.8425691 2.54674018,11.4584095 C2.16258058,11.0742499 1.96484668,10.5417867 2.00514964,10 L2.00514964,9.66666667 C2.02580503,9.26096203 2.23879871,8.88946141 2.57848298,8.66666667 L3.33848298,8.22 L3.33848298,5.8 C3.41848298,3.68666667 5.71181631,1.33333333 8.00514964,1.33333333 L8.00514964,1.33333333 Z M8.00514964,2.66666667 C6.48514964,2.66666667 4.72514964,4.39333333 4.67181631,5.8 L4.67181631,8.98666667 L4.00514964,9.37333333 L3.24514964,9.82 C3.33848298,9.76666667 3.33181631,9.77333333 3.33181631,9.66666667 L3.33181631,10 C3.33181631,10.4866667 3.52514964,10.6666667 3.99848298,10.6666667 L12.0051496,10.6666667 C12.498483,10.6666667 12.6718163,10.5066667 12.6718163,10 C12.6011072,9.88716718 12.51594,9.78407008 12.418483,9.69333333 C12.2925296,9.57026502 12.1539909,9.46077477 12.0051496,9.36666667 L11.338483,8.98 L11.338483,5.84666667 C11.2851496,4.39333333 9.52514964,2.66666667 8.00514964,2.66666667 L8.00514964,2.66666667 Z" id="Shape" fill="#0AA9F1"></path>
                </g>
            </g>
        </g>
    </g>
</svg>