<?xml version="1.0" encoding="UTF-8"?>
<svg width="16px" height="16px" viewBox="0 0 16 16" version="1.1" xmlns="http://www.w3.org/2000/svg" xmlns:xlink="http://www.w3.org/1999/xlink">
    <!-- Generator: Sketch 46.2 (44496) - http://www.bohemiancoding.com/sketch -->
    <title>个人-下拉列表-标签管理</title>
    <desc>Created with Sketch.</desc>
    <defs></defs>
    <g id="page1" stroke="none" stroke-width="1" fill="none" fill-rule="evenodd">
        <g id="01-H5列表-空" transform="translate(-852.000000, -258.000000)">
            <g id="Group" transform="translate(832.000000, 35.000000)">
                <g id="Group-13" transform="translate(20.000000, 223.000000)">
                    <rect id="Rectangle-10-Copy-9" x="0" y="0" width="16" height="16"></rect>
                    <path d="M1.33495455,2.66842186 C1.33495455,1.93204219 1.93190822,1.33508852 2.66828789,1.33508852 L5.85495455,1.33508852 C7.13715502,1.30110043 8.38326358,1.76182639 9.33495455,2.62175519 L14.0682879,7.38842186 C14.4572901,7.76516685 14.6768897,8.28355412 14.6768897,8.82508852 C14.6768897,9.36662292 14.4572901,9.8850102 14.0682879,10.2617552 L10.2549546,14.0750885 C9.87820956,14.4640907 9.35982228,14.6836903 8.81828789,14.6836903 C8.27675349,14.6836903 7.75836621,14.4640907 7.38162122,14.0750885 L2.62162122,9.33508852 C1.76288292,8.38267712 1.30233928,7.13706169 1.33495455,5.85508852 L1.33495455,2.66842186 L1.33495455,2.66842186 Z M5.33495455,6.66842186 C6.07133422,6.66842186 6.66828789,6.07146819 6.66828789,5.33508852 C6.66828789,4.59870886 6.07133422,4.00175519 5.33495455,4.00175519 C4.59857489,4.00175519 4.00162122,4.59870886 4.00162122,5.33508852 C4.00162122,6.07146819 4.59857489,6.66842186 5.33495455,6.66842186 L5.33495455,6.66842186 Z" id="Shape" fill="#B5C1D4"></path>
                </g>
            </g>
        </g>
    </g>
</svg>