<?xml version="1.0" encoding="UTF-8"?>
<svg width="16px" height="16px" viewBox="0 0 16 16" version="1.1" xmlns="http://www.w3.org/2000/svg" xmlns:xlink="http://www.w3.org/1999/xlink">
    <!-- Generator: Sketch 46.2 (44496) - http://www.bohemiancoding.com/sketch -->
    <title>个人-下拉列表-推出-鼠标经过</title>
    <desc>Created with Sketch.</desc>
    <defs></defs>
    <g id="page1" stroke="none" stroke-width="1" fill="none" fill-rule="evenodd">
        <g id="icon-退出">
            <rect id="Rectangle-10-Copy-7" x="0" y="0" width="16" height="16"></rect>
            <path d="M6.74666667,4.52390477 L6.74666667,4.52390477 C6.48709283,4.78531954 6.06474812,4.78681192 5.80333334,4.52723809 C5.54191857,4.26766427 5.54042618,3.84531955 5.8,3.58390477 L7.7,1.69057144 C7.95922901,1.43647619 8.37410433,1.43647619 8.63333333,1.69057144 L10.5333333,3.58390477 C10.7929072,3.84531955 10.7914148,4.26766427 10.53,4.5272381 C10.2685852,4.78681194 9.8462405,4.78531955 9.58666667,4.52390477 L8.83333333,3.77057144 L8.83333333,9.38390477 C8.83333333,9.7520946 8.5348565,10.0505714 8.16666667,10.0505714 C7.79847683,10.0505714 7.5,9.7520946 7.5,9.38390477 L7.5,3.7772381 L6.74666667,4.52390477 Z M12.8333333,4.30390477 C13.9379028,4.30390477 14.8333333,5.19933527 14.8333333,6.30390477 L14.8333333,12.8305714 C14.8333333,13.9351409 13.9379028,14.8305714 12.8333333,14.8305714 L3.5,14.8305714 C2.3954305,14.8305714 1.5,13.9351409 1.5,12.8305714 L1.5,6.30390477 C1.5,5.19933527 2.3954305,4.30390477 3.5,4.30390477 L4.16666667,4.30390477 C4.5348565,4.30390477 4.83333333,4.6023816 4.83333333,4.97057144 C4.83333333,5.33876127 4.5348565,5.6372381 4.16666667,5.6372381 L3.5,5.6372381 C3.13181017,5.6372381 2.83333333,5.93571494 2.83333333,6.30390477 L2.83333333,12.8305714 C2.83333333,13.1987613 3.13181017,13.4972381 3.5,13.4972381 L12.8333333,13.4972381 C13.2015232,13.4972381 13.5,13.1987613 13.5,12.8305714 L13.5,6.30390477 C13.5,5.93571494 13.2015232,5.6372381 12.8333333,5.6372381 L12.1266667,5.6372381 C11.7584768,5.6372381 11.46,5.33876127 11.46,4.97057144 C11.46,4.6023816 11.7584768,4.30390477 12.1266667,4.30390477 L12.8333333,4.30390477 Z" id="Combined-Shape" fill="#0AA9F1"></path>
        </g>
    </g>
</svg>