<?xml version="1.0" encoding="UTF-8"?>
<svg width="16px" height="16px" viewBox="0 0 16 16" version="1.1" xmlns="http://www.w3.org/2000/svg" xmlns:xlink="http://www.w3.org/1999/xlink">
    <!-- Generator: Sketch 46.2 (44496) - http://www.bohemiancoding.com/sketch -->
    <title>个人-下拉列表-我的订单-鼠标经过</title>
    <desc>Created with Sketch.</desc>
    <defs></defs>
    <g id="page1" stroke="none" stroke-width="1" fill="none" fill-rule="evenodd">
        <g id="icon-订单">
            <rect id="Rectangle-10-Copy-18" x="0" y="0" width="16" height="16"></rect>
            <path d="M2,2.66066667 C2,1.928 2.59533333,1.33333333 3.33,1.33333333 L12.67,1.33333333 C13.4046667,1.33333333 14,1.932 14,2.66066667 L14,13.3393333 C14,14.072 13.4046667,14.6666667 12.67,14.6666667 L3.33,14.6666667 C2.59533333,14.6666667 2,14.068 2,13.3393333 L2,2.66066667 L2,2.66066667 Z M3.33,12.666 C3.33,13.0346667 3.63,13.3333333 4.00133333,13.3333333 L11.9953333,13.3333333 C12.366,13.3333333 12.6666667,13.0366667 12.6666667,12.666 L12.6666667,3.32866667 C12.6666667,2.96 12.3666667,2.66133333 11.9953333,2.66133333 L4.00466667,2.66133333 C3.634,2.66133333 3.33333333,2.958 3.33333333,3.32866667 L3.33066667,12.666 L3.33,12.666 Z M4.66666667,5.33333333 C4.66666667,4.96533333 4.962,4.66666667 5.33933333,4.66666667 L6.66,4.66666667 C7.03133333,4.66666667 7.33266667,4.96266667 7.33266667,5.33333333 C7.33266667,5.70133333 7.03733333,6 6.66,6 L5.33933333,6 C4.968,6 4.66666667,5.704 4.66666667,5.33333333 L4.66666667,5.33333333 Z M4.66666667,8 C4.66666667,7.632 4.97066667,7.33333333 5.33,7.33333333 L10.6693333,7.33333333 C11.036,7.33333333 11.3326667,7.62933333 11.3326667,8 C11.3326667,8.368 11.0286667,8.66666667 10.6693333,8.66666667 L5.33,8.66666667 C4.96333333,8.66666667 4.66666667,8.37066667 4.66666667,8 L4.66666667,8 Z M4.66666667,10.6666667 C4.66666667,10.2986667 4.97066667,10 5.33,10 L10.6693333,10 C11.036,10 11.3326667,10.296 11.3326667,10.6666667 C11.3326667,11.0346667 11.0286667,11.3333333 10.6693333,11.3333333 L5.33,11.3333333 C4.96333333,11.3333333 4.66666667,11.0373333 4.66666667,10.6666667 L4.66666667,10.6666667 Z" id="Shape" fill="#0AA9F1"></path>
        </g>
    </g>
</svg>