<?xml version="1.0" encoding="UTF-8"?>
<svg width="16px" height="16px" viewBox="0 0 16 16" version="1.1" xmlns="http://www.w3.org/2000/svg" xmlns:xlink="http://www.w3.org/1999/xlink">
    <!-- Generator: Sketch 46.2 (44496) - http://www.bohemiancoding.com/sketch -->
    <title>个人-下拉列表-个人设置</title>
    <desc>Created with Sketch.</desc>
    <defs></defs>
    <g id="page1" stroke="none" stroke-width="1" fill="none" fill-rule="evenodd">
        <g id="01-H5列表-空" transform="translate(-852.000000, -194.000000)">
            <g id="Group" transform="translate(832.000000, 35.000000)">
                <g id="icon-设置" transform="translate(20.000000, 159.000000)">
                    <rect id="Rectangle-10" x="0" y="0" width="16" height="16"></rect>
                    <path d="M2.16666667,4.16963996 L9.61333333,4.16963996 C9.89497932,4.97026887 10.6512768,5.50594659 11.5,5.50594659 C12.3487232,5.50594659 13.1050207,4.97026887 13.3866667,4.16963996 L14.1666667,4.16963996 C14.5348565,4.16963996 14.8333333,3.87116313 14.8333333,3.5029733 C14.8333333,3.13478346 14.5348565,2.83630663 14.1666667,2.83630663 L13.3866667,2.83630663 C13.1050207,2.03567772 12.3487232,1.5 11.5,1.5 C10.6512768,1.5 9.89497932,2.03567772 9.61333333,2.83630663 L2.16666667,2.83630663 C1.79847683,2.83630663 1.5,3.13478346 1.5,3.5029733 C1.5,3.87116313 1.79847683,4.16963996 2.16666667,4.16963996 L2.16666667,4.16963996 Z M11.5,2.83630663 C11.8681898,2.83630663 12.1666667,3.13478346 12.1666667,3.5029733 C12.1666667,3.87116313 11.8681898,4.16963996 11.5,4.16963996 C11.1318102,4.16963996 10.8333333,3.87116313 10.8333333,3.5029733 C10.8333333,3.13478346 11.1318102,2.83630663 11.5,2.83630663 Z M14.1666667,7.5029733 C14.5348565,7.5029733 14.8333333,7.80145013 14.8333333,8.16963996 C14.8333333,8.5378298 14.5348565,8.83630663 14.1666667,8.83630663 L7.38666667,8.83630663 C7.10502068,9.63693554 6.34872322,10.1726133 5.5,10.1726133 C4.65127678,10.1726133 3.89497932,9.63693554 3.61333333,8.83630663 L2.16666667,8.83630663 C1.79847683,8.83630663 1.5,8.5378298 1.5,8.16963996 C1.5,7.80145013 1.79847683,7.5029733 2.16666667,7.5029733 L3.61333333,7.5029733 C3.89497932,6.70234439 4.65127678,6.16666667 5.5,6.16666667 C6.34872322,6.16666667 7.10502068,6.70234439 7.38666667,7.5029733 L14.1666667,7.5029733 Z M14.1666667,12.16964 C14.5348565,12.16964 14.8333333,12.4681168 14.8333333,12.8363066 C14.8333333,13.2044965 14.5348565,13.5029733 14.1666667,13.5029733 L13.3866667,13.5029733 C13.1050207,14.3036022 12.3487232,14.8392799 11.5,14.8392799 C10.6512768,14.8392799 9.89497932,14.3036022 9.61333333,13.5029733 L2.16666667,13.5029733 C1.79847683,13.5029733 1.5,13.2044965 1.5,12.8363066 C1.5,12.4681168 1.79847683,12.16964 2.16666667,12.16964 L9.61333333,12.16964 C9.89497932,11.3690111 10.6512768,10.8333333 11.5,10.8333333 C12.3487232,10.8333333 13.1050207,11.3690111 13.3866667,12.16964 L14.1666667,12.16964 Z M5.5,8.83630663 C5.86818983,8.83630663 6.16666667,8.5378298 6.16666667,8.16963996 C6.16666667,7.80145013 5.86818983,7.5029733 5.5,7.5029733 C5.13181017,7.5029733 4.83333333,7.80145013 4.83333333,8.16963996 C4.83333333,8.5378298 5.13181017,8.83630663 5.5,8.83630663 Z M11.5,13.5029733 C11.8681898,13.5029733 12.1666667,13.2044965 12.1666667,12.8363066 C12.1666667,12.4681168 11.8681898,12.16964 11.5,12.16964 C11.1318102,12.16964 10.8333333,12.4681168 10.8333333,12.8363066 C10.8333333,13.2044965 11.1318102,13.5029733 11.5,13.5029733 Z" id="Combined-Shape" fill="#B5C1D4"></path>
                </g>
            </g>
        </g>
    </g>
</svg>