<?xml version="1.0" encoding="UTF-8"?>
<svg width="22px" height="22px" viewBox="0 0 22 22" version="1.1" xmlns="http://www.w3.org/2000/svg" xmlns:xlink="http://www.w3.org/1999/xlink">
    <!-- Generator: Sketch 41.2 (35397) - http://www.bohemiancoding.com/sketch -->
    <title>仪表盘-icon-选中</title>
    <desc>Created with Sketch.</desc>
    <defs></defs>
    <g id="Page-1" stroke="none" stroke-width="1" fill="none" fill-rule="evenodd">
        <g id="仪表盘" transform="translate(-19.000000, -91.000000)">
            <g id="仪表盘-icon-选中" transform="translate(18.000000, 90.000000)">
                <rect id="Rectangle-12" x="0" y="0" width="24" height="24"></rect>
                <path d="M12,1 C5.92483661,1 1,5.92557025 1,12 C1,18.0751634 5.92483661,23 12,23 C18.0751634,23 23,18.0751634 23,12 C23,5.92557025 18.0751634,1 12,1 Z M11.9955982,21.5327464 C6.7274243,21.5327464 2.45845005,17.2637722 2.45845005,11.9955983 C2.45845005,6.72815794 6.7274243,2.45845005 11.9955982,2.45845005 C17.2637722,2.45845005 21.5327464,6.72815794 21.5327464,11.9955983 C21.5327464,17.2637722 17.2637722,21.5327464 11.9955982,21.5327464 Z M16.0985997,7.51247144 L10.8844638,11.1592207 C10.4380071,11.4030983 10.1317882,11.8835606 10.1317882,12.4370196 C10.1317882,13.231462 10.7627111,13.8754664 11.5410165,13.8754664 C11.9970675,13.8754664 12.4025166,13.6543468 12.6600844,13.3114041 L16.9597142,8.65029651 C17.0926714,8.51435114 17.1779301,8.32816707 17.1779301,8.12165597 C17.1779301,7.72444626 16.8624572,7.40243254 16.4733158,7.40243254 C16.3356182,7.40243254 16.2071292,7.44276238 16.0985997,7.51247144 Z" id="Shape" fill="#FFFFFF"></path>
            </g>
        </g>
    </g>
</svg>