<?xml version="1.0" encoding="UTF-8"?>
<svg width="22px" height="22px" viewBox="0 0 22 22" version="1.1" xmlns="http://www.w3.org/2000/svg" xmlns:xlink="http://www.w3.org/1999/xlink">
    <!-- Generator: Sketch 49 (51002) - http://www.bohemiancoding.com/sketch -->
    <title>刷新按钮</title>
    <desc>Created with Sketch.</desc>
    <defs></defs>
    <g id="Page-1" stroke="none" stroke-width="1" fill="none" fill-rule="evenodd">
        <g id="境内期货指令" transform="translate(-343.000000, -74.000000)">
            <g id="Group-8" transform="translate(0.000000, 65.000000)">
                <g id="Group-2" transform="translate(343.000000, 9.000000)">
                    <rect id="Rectangle-13" x="0" y="0" width="22" height="22"></rect>
                    <path d="M19.8,5.13333333 L19.8,9.53333333 C19.8,9.93831667 19.47165,10.2666667 19.0666667,10.2666667 L14.6666667,10.2666667 C14.2616833,10.2666667 13.9333333,9.93831667 13.9333333,9.53333333 C13.9333333,9.12835 14.2616833,8.8 14.6666667,8.8 L17.13965,8.8 C16.1527667,7.83805 15.3734167,7.07666667 15.1534167,6.85666667 C15.1515833,6.85483333 15.1499333,6.85318333 15.1484667,6.85171667 C14.5880167,6.29126667 13.93535,5.85768333 13.2080667,5.56288333 C12.5051667,5.2778 11.7623,5.13333333 11,5.13333333 C10.2377,5.13333333 9.49483333,5.2778 8.79193333,5.56288333 C8.06465,5.85768333 7.41198333,6.29145 6.85153333,6.85171667 C6.8024,6.90085 6.754,6.95071667 6.7067,7.0015 C6.23736667,7.50438333 5.86538333,8.07638333 5.59863333,8.70576667 C5.55775,8.82071667 5.50678333,8.932 5.46608333,9.04731667 C5.33005,9.427 4.91241667,9.62573333 4.53181667,9.49153333 C4.15195,9.35751667 3.95175,8.94245 4.0821,8.5624 C4.13765,8.40198333 4.20016667,8.24358333 4.26781667,8.08775 C4.41411667,7.74913333 4.58626667,7.42151667 4.78206667,7.10948333 C5.02883333,6.71568333 5.31465,6.34388333 5.63383333,6.0016 C5.69286667,5.93816667 5.753,5.87565 5.81441667,5.81441667 C6.5142,5.11463333 7.33058333,4.5727 8.24065,4.20365 C8.67808333,4.02618333 9.13531667,3.8907 9.5997,3.80086667 C10.0598667,3.71176667 10.53085,3.66666667 11,3.66666667 C11.46915,3.66666667 11.9401333,3.71176667 12.4001167,3.80086667 C12.8645,3.8907 13.3217333,4.02618333 13.7591667,4.20365 C14.6694167,4.5727 15.4856167,5.11463333 16.1854,5.81441667 L16.1962167,5.82523333 C16.43125,6.05953333 17.2788,6.88746667 18.3333333,7.91523333 L18.3333333,5.13333333 C18.3333333,4.72835 18.6616833,4.4 19.0666667,4.4 C19.47165,4.4 19.8,4.72835 19.8,5.13333333 Z M2.93333333,17.6 C3.33831667,17.6 3.66666667,17.27165 3.66666667,16.8666667 L3.66666667,14.0845833 C4.7212,15.11235 5.56875,15.9402833 5.80378333,16.1745833 L5.8146,16.1854 C6.51438333,16.8851833 7.33076667,17.4271167 8.24083333,17.7961667 C8.67826667,17.9736333 9.1355,18.1091167 9.59988333,18.19895 C10.0598667,18.2882333 10.53085,18.3333333 11,18.3333333 C11.94325,18.3333333 12.8850333,18.1507333 13.7591667,17.7961667 C14.6694167,17.4271167 15.4856167,16.8851833 16.1854,16.1854 C16.2468167,16.1241667 16.30695,16.06165 16.3659833,15.9982167 C16.6851667,15.6559333 16.9711667,15.2841333 17.21775,14.8903333 C17.4133667,14.5783 17.5857,14.2506833 17.732,13.9120667 C17.79965,13.7562333 17.8621667,13.5978333 17.9177167,13.4374167 C18.0480667,13.0573667 17.8478667,12.6423 17.468,12.5082833 C17.0874,12.3740833 16.6697667,12.5728167 16.5337333,12.9525 C16.4930333,13.0678167 16.4420667,13.1791 16.4011833,13.29405 C15.8005833,14.7110333 14.6336667,15.8587 13.2078833,16.4371167 C12.5051667,16.7222 11.7623,16.8666667 11,16.8666667 C10.2377,16.8666667 9.49483333,16.7222 8.79193333,16.4371167 C8.06465,16.1423167 7.41198333,15.70855 6.85153333,15.1482833 C6.84988333,15.1466333 6.84823333,15.1449833 6.84658333,15.1433333 C6.62658333,14.9235167 5.84723333,14.16195 4.86035,13.2 L7.33333333,13.2 C7.73831667,13.2 8.06666667,12.87165 8.06666667,12.4666667 C8.06666667,12.0616833 7.73831667,11.7333333 7.33333333,11.7333333 L2.93333333,11.7333333 C2.52835,11.7333333 2.2,12.0616833 2.2,12.4666667 L2.2,16.8666667 C2.2,17.27165 2.52835,17.6 2.93333333,17.6 Z" id="Shape" fill="#4A4A4A" fill-rule="nonzero"></path>
                </g>
            </g>
        </g>
    </g>
</svg>