<?xml version="1.0" encoding="UTF-8"?>
<svg width="36px" height="36px" viewBox="0 0 36 36" version="1.1" xmlns="http://www.w3.org/2000/svg" xmlns:xlink="http://www.w3.org/1999/xlink">
    <!-- Generator: Sketch 49 (51002) - http://www.bohemiancoding.com/sketch -->
    <title>合同确认</title>
    <desc>Created with Sketch.</desc>
    <defs></defs>
    <g id="Page-1" stroke="none" stroke-width="1" fill="none" fill-rule="evenodd">
        <g id="首页" transform="translate(-298.000000, -415.000000)">
            <g id="Group-2" transform="translate(298.000000, 415.000000)">
                <rect id="Rectangle-27-Copy-3" x="0" y="0" width="36" height="36"></rect>
                <path d="M17.9838814,32.4008223 C11.3001008,32.3926886 5.50049932,27.7865544 3.97931464,21.2781762 C2.45812995,14.769798 5.61528125,8.07022748 11.6030344,5.10041234 C17.5907876,2.13059721 24.8349631,3.67130142 29.0958814,8.8208223 C29.857272,9.71692954 29.857272,11.0327151 29.0958814,11.9288223 L20.5518814,21.4328223 C19.2536983,22.8754216 17.0456668,23.0293468 15.5598814,21.7808223 L9.93188141,17.0648223 C9.42488405,16.6373539 9.36041307,15.8798197 9.78788146,15.3728223 C10.2153498,14.865825 10.972884,14.8013539 11.4798814,15.2288223 L17.1078814,19.9448223 C17.6048023,20.3626111 18.3438818,20.30944 18.7758814,19.8248223 L27.3198814,10.3208223 C24.6734536,7.16642435 20.6041664,5.57488092 16.5198814,6.0968223 C12.2152753,6.66580522 8.55381438,9.51576227 6.94569894,13.5490413 C5.33758351,17.5823203 6.03369457,22.1696922 8.7659271,25.5443448 C11.4981596,28.9189975 15.8402599,30.5544536 20.1198814,29.8208223 C23.281866,29.2747191 26.0934237,27.4849893 27.9265801,24.8513771 C29.7597365,22.217765 30.4617712,18.9596771 29.8758814,15.8048223 C29.7940094,15.3509239 29.685827,14.9021673 29.5518814,14.4608223 C29.3797139,13.8357588 29.7351694,13.1869679 30.3546293,12.9956164 C30.9740893,12.8042649 31.6335278,13.1395545 31.8438814,13.7528223 C32.0069544,14.2806889 32.1391778,14.8175961 32.2398814,15.3608223 C32.496137,16.7661193 32.5446545,18.2014285 32.3838814,19.6208223 C31.6588798,25.9848843 26.8174422,31.1050713 20.5038814,32.1848223 C19.6714025,32.3271878 18.8284447,32.3994413 17.9838814,32.4008223 Z" id="_路径_" fill="#0FABFC" fill-rule="nonzero"></path>
            </g>
        </g>
    </g>
</svg>