<?xml version="1.0" encoding="UTF-8"?>
<svg width="36px" height="36px" viewBox="0 0 36 36" version="1.1" xmlns="http://www.w3.org/2000/svg" xmlns:xlink="http://www.w3.org/1999/xlink">
    <!-- Generator: Sketch 49 (51002) - http://www.bohemiancoding.com/sketch -->
    <title>境内-icon</title>
    <desc>Created with Sketch.</desc>
    <defs></defs>
    <g id="Page-1" stroke="none" stroke-width="1" fill="none" fill-rule="evenodd">
        <g id="首页" transform="translate(-40.000000, -415.000000)">
            <g id="Group-4" transform="translate(40.000000, 415.000000)">
                <rect id="Rectangle-27" x="0" y="0" width="36" height="36"></rect>
                <path d="M16.7927109,32.3880009 L16.4567109,32.3880009 C10.1286246,32.1364223 5.05628955,27.0640872 4.80471088,20.7360009 C4.71394363,17.4955934 5.93804106,14.3563092 8.19839057,12.0326699 C10.4587401,9.70903059 13.5630326,8.39872993 16.8047109,8.40000092 C17.4674526,8.40000092 18.0047109,8.93725922 18.0047109,9.60000092 L18.0047109,18.0000009 C18.0047109,18.6627426 18.5419692,19.2000009 19.2047109,19.2000009 L27.6047109,19.2000009 C28.2674526,19.2000009 28.8047109,19.7372592 28.8047109,20.4000009 C28.8015299,23.5825993 27.534196,26.6335829 25.2815087,28.8817693 C23.0288214,31.1299558 19.9753092,32.3911851 16.7927109,32.3880009 Z M15.5927109,10.8600009 C10.6852196,11.4761676 7.04907735,15.7200651 7.19271088,20.6640009 C7.39141267,25.7520286 11.4875133,29.8219394 16.5767109,29.9880009 C21.5206467,30.1316345 25.7645442,26.4954922 26.3807109,21.5880009 L19.2527109,21.5880009 C17.2644858,21.5880009 15.6527109,19.976226 15.6527109,17.9880009 L15.6527109,10.8600009 L15.5927109,10.8600009 Z M32.4,16.8000001 L22.8,16.8000001 C21.4745166,16.8000001 20.4,15.7254835 20.4,14.4000001 L20.4,4.80000015 C20.4,4.13725845 20.9372583,3.60000015 21.6,3.60000015 C25.024747,3.59946372 28.2865433,5.06225056 30.564,7.62000015 L31.008,8.14800015 C31.4188998,8.66825239 31.3302521,9.42310024 30.8099999,9.83400007 C30.2897477,10.2448999 29.5348999,10.1562523 29.124,9.63600015 L28.764,9.21600015 C27.2105507,7.47821313 25.0779064,6.36497283 22.764,6.08400015 L22.764,14.4120001 L31.092,14.4120001 C31.092,14.1880001 31.056,13.9640001 30.984,13.7400001 C30.8547655,13.0772585 31.2872584,12.4352349 31.95,12.3060003 C32.6127417,12.1767657 33.2547653,12.6092585 33.384,13.2720001 C33.5348807,14.0388341 33.6112362,14.8184641 33.612,15.6000001 C33.612016,15.92035 33.4839419,16.2274075 33.2562962,16.4527993 C33.0286504,16.6781911 32.7203339,16.8032036 32.4,16.8000001 Z" id="Combined-Shape" fill="#0FABFC" fill-rule="nonzero"></path>
            </g>
        </g>
    </g>
</svg>