<?xml version="1.0" encoding="UTF-8"?>
<svg width="36px" height="36px" viewBox="0 0 36 36" version="1.1" xmlns="http://www.w3.org/2000/svg" xmlns:xlink="http://www.w3.org/1999/xlink">
    <!-- Generator: Sketch 49 (51002) - http://www.bohemiancoding.com/sketch -->
    <title>外盘-icon</title>
    <desc>Created with Sketch.</desc>
    <defs></defs>
    <g id="Page-1" stroke="none" stroke-width="1" fill="none" fill-rule="evenodd">
        <g id="首页" transform="translate(-126.000000, -415.000000)">
            <g id="Group-5" transform="translate(126.000000, 415.000000)">
                <rect id="Rectangle-27-Copy-2" x="0" y="0" width="36" height="36"></rect>
                <path d="M13.2215481,21.8338109 L10.8347939,12.2867939 C10.7344376,11.8790153 10.8545501,11.4484436 11.1514969,11.1514969 C11.4484436,10.8545501 11.8790153,10.7344376 12.2867939,10.8347939 L21.8338109,13.2215481 C21.8641238,13.2273744 21.8943491,13.2343962 21.9244229,13.2426307 C22.3420061,13.3569689 22.6656206,13.6873826 22.7712526,14.1072526 L25.1712526,23.7072526 C25.2516873,24.0638899 25.1651549,24.4377422 24.9362,24.7227677 C24.7072451,25.0077932 24.3608442,25.1728987 23.9952526,25.1712526 C23.8996008,25.1828144 23.8029045,25.1828144 23.7072526,25.1712526 L14.1072526,22.7712526 C13.6873826,22.6656206 13.3569689,22.3420061 13.2426307,21.9244229 C13.2343962,21.8943491 13.2273744,21.8641238 13.2215481,21.8338109 Z M19.2675344,15.0429708 L13.6787939,13.6427939 L15.0789708,19.2315344 L19.2675344,15.0429708 Z M17.9838814,32.4008223 C11.3001008,32.3926886 5.50049932,27.7865544 3.97931464,21.2781762 C2.45812995,14.769798 5.61528125,8.07022748 11.6030344,5.10041234 C17.5907876,2.13059721 24.8349631,3.67130142 29.0958814,8.8208223 C29.3702614,9.1509357 29.4476856,9.60235307 29.298989,10.0050298 C29.1502924,10.4077066 28.7980656,10.7004665 28.3749889,10.7730299 C27.9519123,10.8455932 27.5222614,10.6869358 27.2478814,10.3568223 C23.6129139,5.96411769 17.3888729,4.73569488 12.3575382,7.41795392 C7.32620353,10.100213 4.87694689,15.9524648 6.4979573,21.4188317 C8.11896772,26.8851987 13.3626133,30.4561776 19.0428106,29.9620116 C24.723008,29.4678455 29.2712061,25.0449954 29.9238814,19.3808223 C30.0614588,18.1814637 30.0210219,16.968357 29.8038814,15.7808223 C29.7216697,15.3269955 29.613492,14.8782583 29.4798814,14.4368223 C29.3077139,13.8117588 29.6631694,13.1629679 30.2826293,12.9716164 C30.9020893,12.7802649 31.5615278,13.1155545 31.7718814,13.7288223 C31.9346184,14.256782 32.066837,14.7936696 32.1678814,15.3368223 C32.4237918,16.7421564 32.4723075,18.1774149 32.3118814,19.5968223 C31.5868798,25.9608843 26.7454422,31.0810713 20.4318814,32.1608223 C19.6236881,32.3067023 18.8050181,32.3869641 17.9838814,32.4008223 Z M16.7952526,20.9232526 L22.3992526,22.3272526 L20.9472526,16.7712526 L16.7952526,20.9232526 Z" id="Combined-Shape" fill="#0FABFC" fill-rule="nonzero"></path>
            </g>
        </g>
    </g>
</svg>