<?xml version="1.0" encoding="UTF-8"?>
<svg width="36px" height="36px" viewBox="0 0 36 36" version="1.1" xmlns="http://www.w3.org/2000/svg" xmlns:xlink="http://www.w3.org/1999/xlink">
    <!-- Generator: Sketch 49 (51002) - http://www.bohemiancoding.com/sketch -->
    <title>预合同</title>
    <desc>Created with Sketch.</desc>
    <defs></defs>
    <g id="Page-1" stroke="none" stroke-width="1" fill="none" fill-rule="evenodd">
        <g id="首页" transform="translate(-212.000000, -415.000000)">
            <g id="Group-3" transform="translate(212.000000, 415.000000)">
                <rect id="Rectangle-27-Copy" x="0" y="0" width="36" height="36"></rect>
                <g id="Group" transform="translate(7.200000, 3.600000)" fill="#0FABFC">
                    <path d="M3.6,28.8 C1.6117749,28.8 0,27.1882251 0,25.2 L0,3.6 C0,1.6117749 1.6117749,0 3.6,0 L12,0 C12.6627417,0 13.2,0.5372583 13.2,1.2 C13.2,1.8627417 12.6627417,2.4 12,2.4 L3.6,2.4 C2.9372583,2.4 2.4,2.9372583 2.4,3.6 L2.4,25.2 C2.4,25.8627417 2.9372583,26.4 3.6,26.4 C4.2627417,26.4 4.8,26.9372583 4.8,27.6 C4.8,28.2627417 4.2627417,28.8 3.6,28.8 Z M18,28.8 L8.4,28.8 C7.7372583,28.8 7.2,28.2627417 7.2,27.6 C7.2,26.9372583 7.7372583,26.4 8.4,26.4 L18,26.4 C18.6627417,26.4 19.2,25.8627417 19.2,25.2 L19.2,9.6 C19.2,8.9372583 19.7372583,8.4 20.4,8.4 C21.0627417,8.4 21.6,8.9372583 21.6,9.6 L21.6,25.2 C21.6,27.1882251 19.9882251,28.8 18,28.8 Z M5.8,19.2 L13.4,19.2 C13.9522847,19.2 14.4,19.6477153 14.4,20.2 L14.4,20.6 C14.4,21.1522847 13.9522847,21.6 13.4,21.6 L5.8,21.6 C5.24771525,21.6 4.8,21.1522847 4.8,20.6 L4.8,20.2 C4.8,19.6477153 5.24771525,19.2 5.8,19.2 Z M5.8,14.4 L15.8,14.4 C16.3522847,14.4 16.8,14.8477153 16.8,15.4 L16.8,15.8 C16.8,16.3522847 16.3522847,16.8 15.8,16.8 L5.8,16.8 C5.24771525,16.8 4.8,16.3522847 4.8,15.8 L4.8,15.4 C4.8,14.8477153 5.24771525,14.4 5.8,14.4 Z" id="Combined-Shape" fill-rule="nonzero"></path>
                    <path d="M20.4000204,10.8070146 L14.4000204,10.8070146 C12.4117953,10.8070146 10.8000204,9.19523975 10.8000204,7.20701465 L10.8000204,1.20701465 C10.7971853,0.71949656 11.089585,0.278718594 11.5398426,0.0917695062 C11.9901003,-0.0951795813 12.5087119,0.0088627079 12.8520204,0.355014646 L21.2520204,8.75501465 C21.5981724,9.09832319 21.7022147,9.61693479 21.5152656,10.0671925 C21.3283165,10.5174501 20.8875385,10.8098498 20.4000204,10.8070146 Z M13.2000204,4.09901465 L13.2000204,7.20701465 C13.2000204,7.86975635 13.7372787,8.40701465 14.4000204,8.40701465 L17.5080204,8.40701465 L13.2000204,4.09901465 Z" id="Combined-Shape"></path>
                </g>
            </g>
        </g>
    </g>
</svg>