<?xml version="1.0" encoding="UTF-8"?>
<svg width="16px" height="16px" viewBox="0 0 16 16" version="1.1" xmlns="http://www.w3.org/2000/svg" xmlns:xlink="http://www.w3.org/1999/xlink">
    <!-- Generator: Sketch 48.2 (47327) - http://www.bohemiancoding.com/sketch -->
    <title>单选-选中</title>
    <desc>Created with Sketch.</desc>
    <defs></defs>
    <g id="匹配指令-下一条" stroke="none" stroke-width="1" fill="none" fill-rule="evenodd" transform="translate(-10.000000, -463.000000)">
        <g id="Group-Copy-2" transform="translate(10.000000, 463.000000)">
            <rect id="Rectangle-15" x="0" y="0" width="16" height="16"></rect>
            <g id="元素/单选" transform="translate(2.000000, 3.000000)" fill="#09BB07">
                <path d="M0.258563931,5.53938235 C0.0626799843,5.34056852 0.0379499266,5.00760207 0.212558022,4.78385304 L0.227373108,4.76486846 C0.397848693,4.54641498 0.725718364,4.49800345 0.954589415,4.65327751 L3.23676335,6.20158357 C3.69356984,6.51149695 4.41079214,6.47665318 4.83169717,6.12955268 L12.0047719,0.214256687 C12.2141501,0.0415923686 12.5370893,0.0571164557 12.7393534,0.262405872 L12.5484159,0.0686124697 C12.7447359,0.267868849 12.7504499,0.585127778 12.5463975,0.792232259 L4.77235581,8.68255235 C4.38107801,9.0796826 3.75120855,9.08426738 3.35819738,8.68537784 L0.258563931,5.53938235 Z" id="Fill-"></path>
            </g>
        </g>
    </g>
</svg>